<svg width="31" height="30" viewBox="0 0 31 30" fill="none" xmlns="http://www.w3.org/2000/svg">
<circle cx="15.0709" cy="15" r="9.28571" fill="url(#paint0_linear)"/>
<path d="M18.1261 11.2857H12.4797C11.8422 11.2857 11.3564 11.7714 11.3564 12.4089V18.0553C11.3564 18.6928 11.8422 19.1786 12.4797 19.1786H18.1261C18.7636 19.1786 19.2493 18.6928 19.2493 18.0553V12.4089C19.2493 11.7714 18.7636 11.2857 18.1261 11.2857ZM15.3029 17.6C16.6082 17.6 17.6707 16.5678 17.6707 15.3232C17.6707 15.1107 17.6404 14.8678 17.5797 14.6857H18.2475V17.9036C18.2475 18.0553 18.1261 18.2071 17.9439 18.2071H12.6618C12.51 18.2071 12.3582 18.0857 12.3582 17.9036V14.6553H13.0564C12.9957 14.8678 12.9654 15.0803 12.9654 15.2928C12.935 16.5678 13.9975 17.6 15.3029 17.6ZM15.3029 16.6893C14.4529 16.6893 13.785 16.0214 13.785 15.2018C13.785 14.3821 14.4529 13.7143 15.3029 13.7143C16.1529 13.7143 16.8207 14.3821 16.8207 15.2018C16.8207 16.0518 16.1529 16.6893 15.3029 16.6893ZM18.2172 13.4411C18.2172 13.6232 18.0654 13.775 17.8832 13.775H17.0332C16.8511 13.775 16.6993 13.6232 16.6993 13.4411V12.6214C16.6993 12.4393 16.8511 12.2875 17.0332 12.2875H17.8832C18.0654 12.2875 18.2172 12.4393 18.2172 12.6214V13.4411Z" fill="white"/>
<circle cx="15.0693" cy="15" r="14.5" stroke="#DEDEDE" stroke-linecap="round" stroke-linejoin="round"/>
<defs>
<linearGradient id="paint0_linear" x1="9.73158" y1="22.1964" x2="22.0352" y2="9.42858" gradientUnits="userSpaceOnUse">
<stop stop-color="#EEA054"/>
<stop offset="0.502762" stop-color="#D64763"/>
<stop offset="1" stop-color="#B62A99"/>
</linearGradient>
</defs>
</svg>
