<svg width="24" height="24" viewBox="0 0 24 24" fill="none" xmlns="http://www.w3.org/2000/svg">
<path d="M5.00004 9.86077C6.91644 14.0346 10.3264 17.3531 14.5659 19.1521L15.2455 19.4549C16.8004 20.1477 18.6281 19.6214 19.5764 18.2079L20.4645 16.8842C20.7533 16.4538 20.6654 15.8741 20.262 15.5487L17.2501 13.1189C16.8078 12.762 16.1573 12.8452 15.8188 13.3018L14.8871 14.5591C12.4963 13.3797 10.5552 11.4387 9.37594 9.04792L10.6331 8.1162C11.0898 7.77778 11.1729 7.12726 10.816 6.68488L8.38623 3.67294C8.06088 3.26966 7.48137 3.18169 7.051 3.47026L5.71816 4.36396C4.29582 5.31766 3.77244 7.16051 4.48117 8.71946L4.99927 9.85908L5.00004 9.86077Z" fill="#00648F"/>
</svg>
