<svg width="18" height="18" viewBox="0 0 18 18" fill="none" xmlns="http://www.w3.org/2000/svg">
<path d="M17.6693 14.0998L13.562 10.3654C13.3679 10.1889 13.1127 10.0948 12.8505 10.1029C12.5882 10.111 12.3394 10.2207 12.1565 10.4089L11.2405 11.3509C10.3029 12.3151 8.88669 12.8019 7.77527 12.0445C7.45508 11.8263 7.11997 11.5551 6.78216 11.2182C6.44151 10.8773 6.16804 10.5389 5.94853 10.2159C5.19611 9.10862 5.68124 7.70062 6.64046 6.76677L7.58948 5.84284C7.77783 5.66009 7.88768 5.41122 7.89579 5.14891C7.9039 4.88659 7.80963 4.63141 7.63292 4.43737L3.89946 0.331101C3.72268 0.136454 3.47698 0.0183856 3.21455 0.00197209C2.95212 -0.0144414 2.69363 0.0720926 2.49398 0.243196L0.301387 2.12355C0.126699 2.29887 0.0224326 2.53221 0.00836817 2.7793C-0.00678798 3.0319 -0.295765 9.01551 4.34404 13.6573C8.39174 17.704 13.462 18 14.8584 18C15.0625 18 15.1878 17.9939 15.2211 17.9919C15.4682 17.9781 15.7014 17.8734 15.8758 17.6979L17.7552 15.5043C17.927 15.3053 18.0142 15.047 17.9981 14.7846C17.9821 14.5222 17.8641 14.2765 17.6693 14.0998Z" fill="black"/>
</svg>
