<svg width="30" height="30" viewBox="0 0 30 30" fill="none" xmlns="http://www.w3.org/2000/svg">
<circle cx="15.0006" cy="15" r="9.28571" fill="#2F89CE"/>
<path d="M10.0564 15.1737L12.1912 15.9697L13.0234 18.6473C13.0596 18.8282 13.2767 18.8644 13.4214 18.7558L14.6155 17.7789C14.724 17.6703 14.905 17.6703 15.0497 17.7789L17.1845 19.3348C17.3293 19.4433 17.5464 19.3709 17.5825 19.19L19.1746 11.5915C19.2108 11.4106 19.0299 11.2297 18.849 11.302L10.0564 14.7033C9.83928 14.7757 9.83928 15.1013 10.0564 15.1737ZM12.9149 15.5717L17.1122 13.0027C17.1845 12.9665 17.2569 13.075 17.1845 13.1112L13.7471 16.3315C13.6385 16.4401 13.53 16.5848 13.53 16.7657L13.4214 17.6341C13.4214 17.7427 13.2405 17.7789 13.2043 17.6341L12.7701 16.0421C12.6616 15.8612 12.734 15.6441 12.9149 15.5717Z" fill="white"/>
<circle cx="15" cy="15" r="14.5" stroke="#DEDEDE" stroke-linecap="round" stroke-linejoin="round"/>
</svg>
