<svg width="40" height="40" viewBox="0 0 40 40" fill="none" xmlns="http://www.w3.org/2000/svg">
<g clip-path="url(#clip0)">
<path d="M20 40C31.0457 40 40 31.0457 40 20C40 8.9543 31.0457 0 20 0C8.9543 0 0 8.9543 0 20C0 31.0457 8.9543 40 20 40Z" fill="#FFA300"/>
<path d="M39.9995 20.0001C39.9995 18.8092 39.8949 17.6428 39.6953 16.5092L33.9641 10.7228L31.995 8.80884L29.8416 13.0754L25.575 8.80884L23.3239 12.9775L19.1552 8.80884L18.0384 14.112L12.7353 8.80884L6.58105 29.8838L16.3674 39.6701C17.5454 39.8863 18.7591 40.0001 19.9995 40.0001C31.0452 40.0001 39.9995 31.0458 39.9995 20.0001Z" fill="#F58B20"/>
<path d="M8.89351 30.2085H7.27836C6.77516 30.2085 6.36719 29.8005 6.36719 29.2973V25.5467C6.36719 25.0435 6.77516 24.6355 7.27836 24.6355H8.89351C9.39672 24.6355 9.80469 25.0435 9.80469 25.5467V29.2973C9.80469 29.8005 9.39672 30.2085 8.89351 30.2085Z" fill="#DCE1EB"/>
<path d="M33.3076 16.0156H31.6924C31.1892 16.0156 30.7812 15.6076 30.7812 15.1044V11.3538C30.7812 10.8506 31.1892 10.4426 31.6924 10.4426H33.3076C33.8108 10.4426 34.2188 10.8506 34.2188 11.3538V15.1044C34.2188 15.6076 33.8108 16.0156 33.3076 16.0156Z" fill="#BEC3D2"/>
<path d="M10 9.79175H30V30.2084H10V9.79175Z" fill="#DCE1EB"/>
<path d="M19.9678 9.79175H29.9994V30.2084H19.9678V9.79175Z" fill="#BEC3D2"/>
<path d="M24.7122 31.6027H21.7091C21.0941 31.6027 20.5957 31.1042 20.5957 30.4893V9.51058C20.5957 8.89565 21.0941 8.39722 21.7091 8.39722H24.7122C25.3271 8.39722 25.8256 8.89565 25.8256 9.51058V30.4893C25.8256 31.1042 25.3271 31.6027 24.7122 31.6027Z" fill="#E9EDF5"/>
<path d="M31.1321 31.6027H28.129C27.5141 31.6027 27.0156 31.1042 27.0156 30.4893V9.51058C27.0156 8.89565 27.5141 8.39722 28.129 8.39722H31.1321C31.747 8.39722 32.2455 8.89565 32.2455 9.51058V30.4893C32.2455 31.1042 31.747 31.6027 31.1321 31.6027Z" fill="#E9EDF5"/>
<path d="M18.2923 31.6027H15.2891C14.6742 31.6027 14.1758 31.1042 14.1758 30.4893V9.51058C14.1758 8.89565 14.6742 8.39722 15.2891 8.39722H18.2923C18.9072 8.39722 19.4056 8.89565 19.4056 9.51058V30.4893C19.4056 31.1042 18.9071 31.6027 18.2923 31.6027Z" fill="white"/>
<path d="M11.8714 31.6027H8.86824C8.25332 31.6027 7.75488 31.1042 7.75488 30.4893V9.51058C7.75488 8.89565 8.25332 8.39722 8.86824 8.39722H11.8714C12.4863 8.39722 12.9847 8.89565 12.9847 9.51058V30.4893C12.9847 31.1042 12.4863 31.6027 11.8714 31.6027Z" fill="white"/>
</g>
<defs>
<clipPath id="clip0">
<rect width="40" height="40" fill="white"/>
</clipPath>
</defs>
</svg>
