<svg width="40" height="40" viewBox="0 0 40 40" fill="none" xmlns="http://www.w3.org/2000/svg">
<g clip-path="url(#clip0)">
<path d="M20 0C8.95445 0 0 8.95445 0 20C0 31.0455 8.95445 40 20 40C31.0455 40 40 31.0455 40 20C40 8.95445 31.0455 0 20 0Z" fill="#E36254"/>
<path d="M23.5537 8.55469L19.6184 9.14062L26.0115 22.0173H31.0946L18.3584 9.88281L19.6184 26.0952V27.2695V28.3728V29.6246H8.77839L8.3584 22.8906H9.68652H11.1318L8.77839 23.3594V31.1328L16.3082 39.6544C17.4959 39.8761 18.7182 39.9979 19.9696 40H19.9838H19.9991H20.0153H20.0177H20.031H20.0367H20.0464H20.054H20.0621H20.0697H20.0782H20.0851H20.094H20.1013H20.1098H20.1175H20.1255H20.1332H20.1417H20.1489H20.1575H20.1651H20.1728H20.1808H20.1889H20.1965H20.2042H20.2122H20.2199H20.2279H20.2356H20.2432H20.2509H20.2593H20.2658H20.2751H20.2812H20.2909H20.2953H20.3067H20.3095L20.3991 39.9983L20.414 39.9979H20.4144L20.4278 39.9976H20.4302L20.4443 39.9972H20.4455L20.4596 39.9968H20.4609L20.475 39.9964H20.4767L20.49 39.996H20.4924L20.5066 39.9956H20.507L20.5219 39.9952H20.5223C30.8328 39.73 39.1962 31.66 39.9385 21.4747L23.5537 8.55469Z" fill="#D25346"/>
<path d="M23.3291 24.085H24.4497V31.4989H23.3291V24.085Z" fill="#E6E9ED"/>
<path d="M8.51562 15.5588H23.7105V31.4988H8.51562V15.5588Z" fill="#E6E9ED"/>
<path d="M15.5518 8.51562H16.6742V15.931H15.5518V8.51562Z" fill="#E6E9ED"/>
<path d="M23.7108 15.5603C23.7108 15.7642 23.5439 15.931 23.3401 15.931H16.6734C16.4695 15.931 16.3027 15.7642 16.3027 15.5603V8.88779C16.3027 8.6839 16.4695 8.51709 16.6734 8.51709H23.3401C23.5439 8.51709 23.7108 8.6839 23.7108 8.88779V15.5603Z" fill="#E9EDF5"/>
<path d="M31.113 24.085C31.3169 24.085 31.4837 24.2521 31.4837 24.4557V31.1282C31.4837 31.3325 31.3169 31.4989 31.113 31.4989H24.4478C24.244 31.4989 24.0771 31.3325 24.0771 31.1282V24.4557C24.0771 24.2521 24.244 24.085 24.4478 24.085H31.113Z" fill="#6EBEC5"/>
<path d="M23.3296 24.085C23.5335 24.085 23.7003 24.2521 23.7003 24.4557V31.1282C23.7003 31.3325 23.5335 31.4989 23.3296 31.4989H16.6715C16.4676 31.4989 16.3008 31.3325 16.3008 31.1282V24.4557C16.3008 24.2521 16.4676 24.085 16.6715 24.085H23.3296Z" fill="#6EBEC5"/>
<path d="M23.3296 16.3003C23.5335 16.3003 23.7003 16.4675 23.7003 16.671V23.3435C23.7003 23.5478 23.5335 23.7142 23.3296 23.7142H16.6715C16.4676 23.7142 16.3008 23.5478 16.3008 23.3435V16.671C16.3008 16.4675 16.4676 16.3003 16.6715 16.3003H23.3296Z" fill="#6EBEC5"/>
<path d="M15.5515 24.085C15.7553 24.085 15.9222 24.2521 15.9222 24.4557V31.1282C15.9222 31.3325 15.7553 31.4989 15.5515 31.4989H8.88632C8.68244 31.4989 8.51562 31.3325 8.51562 31.1282V24.4557C8.51562 24.2521 8.68244 24.085 8.88632 24.085H15.5515Z" fill="#6EBEC5"/>
<path d="M15.5515 16.3003C15.7553 16.3003 15.9222 16.4675 15.9222 16.671V23.3435C15.9222 23.5478 15.7553 23.7142 15.5515 23.7142H8.88632C8.68244 23.7142 8.51562 23.5478 8.51562 23.3435V16.671C8.51562 16.4675 8.68244 16.3003 8.88632 16.3003H15.5515Z" fill="#6EBEC5"/>
<path d="M15.5515 8.51562C15.7553 8.51562 15.9222 8.68281 15.9222 8.88632V15.5589C15.9222 15.7631 15.7553 15.9296 15.5515 15.9296H8.88632C8.68244 15.9296 8.51562 15.7631 8.51562 15.5589V8.88632C8.51562 8.68281 8.68244 8.51562 8.88632 8.51562H15.5515Z" fill="#6EBEC5"/>
<path d="M31.114 24.085H30.7433V30.7575H24.0781V31.1282C24.0781 31.3325 24.2449 31.4989 24.4488 31.4989H31.114C31.3179 31.4989 31.4847 31.3325 31.4847 31.1282V24.4557C31.4847 24.2521 31.3175 24.085 31.114 24.085Z" fill="#589DA4"/>
<path d="M23.3395 24.085H22.9688V30.7575H16.3037V31.1282C16.3037 31.3325 16.4705 31.4989 16.6744 31.4989H23.3395C23.5434 31.4989 23.7102 31.3325 23.7102 31.1282V24.4557C23.7102 24.2521 23.5434 24.085 23.3395 24.085Z" fill="#589DA4"/>
<path d="M15.5515 24.085H15.1808V30.7575H8.51562V31.1282C8.51562 31.3325 8.68244 31.4989 8.88632 31.4989H15.5515C15.7553 31.4989 15.9222 31.3325 15.9222 31.1282V24.4557C15.9222 24.2521 15.7553 24.085 15.5515 24.085Z" fill="#589DA4"/>
<path d="M23.3395 16.3003H22.9688V22.9728H16.3037V23.3435C16.3037 23.5478 16.4705 23.7142 16.6744 23.7142H23.3395C23.5434 23.7142 23.7102 23.5478 23.7102 23.3435V16.671C23.7102 16.4675 23.5434 16.3003 23.3395 16.3003Z" fill="#589DA4"/>
<path d="M15.5515 16.3003H15.1808V22.9728H8.51562V23.3435C8.51562 23.5478 8.68244 23.7142 8.88632 23.7142H15.5515C15.7553 23.7142 15.9222 23.5478 15.9222 23.3435V16.671C15.9222 16.4675 15.7553 16.3003 15.5515 16.3003Z" fill="#589DA4"/>
<path d="M22.78 14.8183H17.2203C17.0153 14.8183 16.8496 14.6526 16.8496 14.4476C16.8496 14.2426 17.0153 14.0769 17.2203 14.0769H22.78C22.985 14.0769 23.1507 14.2426 23.1507 14.4476C23.1507 14.6526 22.985 14.8183 22.78 14.8183Z" fill="#BEC3D2"/>
<path d="M22.78 13.3354H17.2203C17.0153 13.3354 16.8496 13.1697 16.8496 12.9647C16.8496 12.7597 17.0153 12.594 17.2203 12.594H22.78C22.985 12.594 23.1507 12.7597 23.1507 12.9647C23.1507 13.1697 22.985 13.3354 22.78 13.3354Z" fill="#BEC3D2"/>
<path d="M22.78 11.852H17.2203C17.0153 11.852 16.8496 11.6863 16.8496 11.4813C16.8496 11.2763 17.0153 11.1106 17.2203 11.1106H22.78C22.985 11.1106 23.1507 11.2763 23.1507 11.4813C23.1507 11.6863 22.985 11.852 22.78 11.852Z" fill="#BEC3D2"/>
<path d="M22.78 10.3684H17.2203C17.0153 10.3684 16.8496 10.2027 16.8496 9.99765C16.8496 9.79266 17.0153 9.62695 17.2203 9.62695H22.78C22.985 9.62695 23.1507 9.79266 23.1507 9.99765C23.1507 10.2027 22.985 10.3684 22.78 10.3684Z" fill="#BEC3D2"/>
<path d="M15.5515 8.51562H15.1808V15.1882H8.51562V15.5589C8.51562 15.7631 8.68244 15.9296 8.88632 15.9296H15.5515C15.7553 15.9296 15.9222 15.7631 15.9222 15.5589V8.88632C15.9222 8.68281 15.7553 8.51562 15.5515 8.51562Z" fill="#589DA4"/>
<path d="M30.9325 12.4667C30.9325 13.9619 29.8842 15.21 28.4791 15.5133V15.5178C28.265 15.5633 28.0419 15.5891 27.81 15.5891C27.578 15.5891 27.355 15.5628 27.1409 15.5178V15.5133C25.7358 15.21 24.6875 13.9614 24.6875 12.4667C24.6875 10.7408 27.81 7.10938 27.81 7.10938C27.81 7.10938 30.9325 10.7408 30.9325 12.4667Z" fill="white"/>
<path d="M28.4805 13.5738C28.4805 13.2041 28.1805 12.9043 27.8104 12.9043C27.4407 12.9043 27.1406 13.2041 27.1406 13.5738V17.8151H28.4801V13.5783C28.4801 13.577 28.4805 13.5752 28.4805 13.5738Z" fill="#C4C8CF"/>
<path d="M28.4805 15.3597C28.4805 14.9899 28.1805 14.6902 27.8104 14.6902C27.4407 14.6902 27.1406 14.9899 27.1406 15.3597V19.6009H28.4801V15.3642C28.4801 15.3629 28.4805 15.3611 28.4805 15.3597Z" fill="#E6E9ED"/>
<path d="M28.9247 17.3684V21.6061C28.9247 22.2266 28.4251 22.7212 27.8095 22.7212C27.1939 22.7212 26.6943 22.2266 26.6943 21.6061V17.3684H27.1404H28.4786H28.9247Z" fill="#57565C"/>
<path d="M28.927 17.8145H26.698C26.4513 17.8145 26.252 17.6151 26.252 17.3684C26.252 17.1218 26.4513 16.9224 26.698 16.9224H28.927C29.1737 16.9224 29.3731 17.1218 29.3731 17.3684C29.3731 17.6151 29.1737 17.8145 28.927 17.8145Z" fill="#656D78"/>
</g>
<defs>
<clipPath id="clip0">
<rect width="40" height="40" fill="white"/>
</clipPath>
</defs>
</svg>
