<svg width="40" height="40" viewBox="0 0 40 40" fill="none" xmlns="http://www.w3.org/2000/svg">
<path d="M20 0C31.0455 0 40 8.95445 40 20C40 31.0455 31.0455 40 20 40C8.95445 40 0 31.0455 0 20C0 8.95445 8.95445 0 20 0Z" fill="#F8EA72"/>
<path d="M7.08335 27.2331L7.08132 27.2351C7.80468 27.9726 8.3739 28.7428 8.7457 29.4445C8.7457 29.4445 12.3151 32.9351 12.4034 33.1022C12.4034 33.1022 13.7319 34.4142 15.2223 35.8924C14.8502 35.2074 14.2934 34.4606 13.5911 33.7445L13.5931 33.7424L13.5156 33.6657L13.5108 33.6613C11.808 31.9585 10.9199 30.0499 11.4161 29.2471C11.2663 29.3395 11.0782 29.3839 10.8598 29.3839C9.92648 29.3842 8.44625 28.5704 7.08335 27.2331ZM17.462 10.1553L17.4564 10.1597L5.01132 22.6048C4.30609 23.31 5.19578 25.3466 7.00109 27.1523L7.00554 27.1563L7.00187 27.1527C5.19664 25.3474 4.30609 23.3117 5.0121 22.6052L17.462 10.1553ZM24.1389 9.18768C24.281 9.31643 24.4227 9.45127 24.5627 9.59135C24.4227 9.45127 24.281 9.31643 24.1389 9.18768ZM24.1277 9.1776L24.1345 9.18369L24.1277 9.1776ZM31.5319 9.16018C33.3372 10.9654 34.2277 13.0012 33.5217 13.7077L33.5124 13.717L31.1004 16.129C32.8871 17.9274 33.7651 19.9462 33.0623 20.649L33.053 20.6583L18.0591 35.6518C17.8948 35.8161 17.6582 35.894 17.3696 35.894C16.9409 35.894 16.3971 35.7224 15.8025 35.4076L15.2701 35.94C17.1423 37.797 19.2496 39.8961 19.2956 39.982L19.355 39.9837L19.466 39.9865C19.6441 39.9913 19.8212 39.9999 20.0001 39.9999C31.0456 39.9999 40.0001 31.0454 40.0001 19.9999V19.9801V19.9797C39.9993 19.1295 39.9391 18.2935 39.8354 17.4708C39.778 17.4099 31.6005 9.22885 31.5319 9.16018ZM20.7048 7.35939C20.4182 7.35939 20.1833 7.43611 20.019 7.59799C20.1833 7.4365 20.4182 7.35979 20.7048 7.35939C20.7577 7.35939 20.8122 7.36182 20.8684 7.36705C20.8122 7.36221 20.7577 7.35939 20.7048 7.35939ZM26.9752 7.17971L24.5632 9.59174L24.5628 9.59135L24.5632 9.59174L26.9752 7.17971ZM27.674 6.92822C27.3854 6.92822 27.1488 7.00611 26.9845 7.17041C27.1487 7.00619 27.3853 6.92822 27.674 6.92822Z" fill="#D3C54A"/>
<path d="M26.9745 7.17969L11.9806 22.1737C11.2741 22.8801 12.165 24.9159 13.9703 26.7212C15.7756 28.5265 17.8113 29.417 18.5178 28.7109L33.5117 13.717L26.9745 7.17969Z" fill="#E6E6E6"/>
<path d="M28.9734 11.7183L28.9727 11.719C29.7352 12.4816 30.331 13.2833 30.717 14.0112L29.757 14.9711C30.1942 15.2892 30.6398 15.669 31.0723 16.1014L31.0997 16.1293L33.5117 13.7172C33.3478 13.8754 33.1145 13.9501 32.8315 13.9501C31.8795 13.9498 30.3589 13.1033 28.9734 11.7183Z" fill="#E2D1B6"/>
<path d="M33.5216 13.7078C32.8152 14.4142 30.779 13.5233 28.9741 11.718C27.1688 9.91276 26.2783 7.87698 26.9843 7.1705C27.6907 6.46409 29.7269 7.35495 31.5318 9.16026C33.337 10.9656 34.2276 13.0014 33.5216 13.7078Z" fill="white"/>
<path d="M32.2698 12.4569C31.9206 12.8061 30.7346 12.1856 29.6204 11.0714C28.5063 9.95725 27.8858 8.77123 28.235 8.42201C28.5842 8.07279 29.7702 8.69326 30.8843 9.80748C31.9985 10.9217 32.6189 12.1077 32.2698 12.4569Z" fill="#6EBEC5"/>
<path d="M30.5984 9.84663C30.64 9.88663 30.6815 9.92733 30.7232 9.96897C30.6815 9.92741 30.64 9.88663 30.5984 9.84663ZM30.5694 9.81843L30.5774 9.82608L30.5694 9.81843ZM30.5528 9.80303L30.569 9.81835L30.5528 9.80303ZM30.5051 9.75827L30.5467 9.79741L30.5051 9.75827ZM29.6606 9.07241C29.9246 9.25288 30.2129 9.48499 30.5035 9.75663C30.2129 9.48499 29.9251 9.25288 29.6606 9.07241ZM29.659 9.07116L29.6607 9.07241L29.659 9.07116ZM29.6021 9.03288L29.6522 9.0664L29.6021 9.03288ZM29.6005 9.03202L29.6013 9.0328L29.6005 9.03202ZM28.4665 8.84272C28.4133 9.21811 28.9481 10.0755 29.7822 10.9096C30.5783 11.7057 31.3949 12.2288 31.7945 12.2288C31.8736 12.2288 31.9362 12.2082 31.979 12.1655C32.239 11.9055 31.6766 10.9221 30.7231 9.96866L29.7821 10.9097C28.9481 10.0755 28.4133 9.21811 28.4665 8.84272ZM28.7314 8.65015L28.737 8.65054L28.7314 8.65015Z" fill="#2F8E98"/>
<path d="M30.7173 14.011C30.3314 13.2832 29.7351 12.4811 28.9727 11.7185C27.1674 9.91328 25.132 9.02196 24.4251 9.72875L11.9801 22.1734C11.2748 22.8787 12.1645 24.9156 13.9698 26.721L14.0542 26.8001L14.0502 26.8042C14.7735 27.5417 15.3427 28.3119 15.7145 29.0135L16.2623 28.4657L30.7173 14.011Z" fill="#E6E6E6"/>
<path d="M30.5916 9.84052L30.5976 9.84614L30.5916 9.84052ZM30.5767 9.82599L30.5916 9.84052L30.5767 9.82599ZM30.546 9.79692L30.5521 9.80255L30.546 9.79692ZM30.5028 9.75653L30.5044 9.75817L30.5028 9.75653ZM29.6514 9.06669L29.6583 9.07153L29.6514 9.06669ZM28.7367 8.65005C28.9425 8.66099 29.2482 8.79817 29.6001 9.03192C29.2478 8.79864 28.9425 8.66138 28.7367 8.65005ZM28.71 8.64966C28.6313 8.64966 28.5688 8.67028 28.5256 8.71302C28.4933 8.74528 28.4735 8.78935 28.4658 8.84302C28.4735 8.78935 28.4932 8.74575 28.5256 8.71302C28.5684 8.66981 28.6309 8.64966 28.71 8.64966ZM28.71 8.64966L28.7307 8.65005L28.71 8.64966Z" fill="#2F8E98"/>
<path d="M28.7108 8.64966C28.6316 8.64966 28.569 8.67028 28.5263 8.71302C28.494 8.74528 28.4742 8.78935 28.4665 8.84302C28.4133 9.21841 28.9481 10.0758 29.7822 10.9099L30.7232 9.96888C30.6816 9.92731 30.64 9.88653 30.5984 9.84653L30.5923 9.84091L30.5774 9.82638L30.5693 9.81872L30.5532 9.80341L30.5472 9.79778L30.5056 9.75864L30.504 9.757C30.2133 9.48575 29.9251 9.25317 29.6611 9.07278H29.6607L29.659 9.07153L29.6522 9.06669L29.6021 9.03317H29.6017L29.6004 9.03239C29.2484 8.79903 28.9429 8.66185 28.737 8.65052L28.7314 8.65013L28.7108 8.64966Z" fill="#146A75"/>
<path d="M26.5155 14.1206L11.5216 29.1146C10.8152 29.821 11.706 31.8568 13.5113 33.6621C15.3166 35.4674 17.3524 36.3579 18.0588 35.6519L33.0528 20.6579L26.5155 14.1206Z" fill="#D45446"/>
<path d="M13.5146 33.6661L13.5921 33.7428L13.5942 33.7407L13.5146 33.6661ZM28.5135 18.6592L28.5127 18.66C29.2753 19.4225 29.8711 20.2243 30.257 20.9521L16.4402 34.7685L15.8024 35.4063L15.8016 35.4071C16.3966 35.7219 16.9404 35.8935 17.3687 35.8935C17.6574 35.8935 17.8939 35.8156 18.0582 35.6513L33.0522 20.6574C32.8882 20.8156 32.655 20.8903 32.3719 20.8903C31.42 20.8911 29.8989 20.0442 28.5135 18.6592Z" fill="#C2382C"/>
<path d="M33.0616 20.6489C32.3552 21.3553 30.319 20.4645 28.5141 18.6591C26.7089 16.8539 25.8183 14.8181 26.5243 14.1117C27.2307 13.4053 29.2665 14.2961 31.0718 16.1014C32.8771 17.9063 33.768 19.9424 33.0616 20.6489Z" fill="#E46A5D"/>
<path d="M31.8098 19.3978C31.4606 19.7465 30.2746 19.1265 29.1605 18.0123C28.0463 16.8982 27.4259 15.7121 27.775 15.3629C28.1238 15.0137 29.3102 15.6342 30.4244 16.7484C31.5385 17.8625 32.159 19.0489 31.8098 19.3978Z" fill="white"/>
<path d="M31.52 19.1067C31.26 19.3667 30.2767 18.8044 29.3232 17.8508C28.3697 16.8973 27.8074 15.914 28.0674 15.654C28.3274 15.394 29.3107 15.9564 30.2642 16.9099C31.2178 17.8634 31.78 18.8472 31.52 19.1067Z" fill="#D45446"/>
<path d="M28.5132 18.6592C26.708 16.854 24.6726 15.9626 23.9657 16.6694L11.5211 29.1146C10.8159 29.8198 11.7055 31.8568 13.5109 33.6621L13.5952 33.7412L13.5912 33.7453C14.3145 34.4828 14.8837 35.253 15.2555 35.9547L15.8034 35.4068L16.4412 34.769L30.258 20.9522C29.872 20.2239 29.2758 19.4222 28.5132 18.6592Z" fill="#D45446"/>
<path d="M28.2481 15.5906C28.171 15.5914 28.1097 15.6116 28.0673 15.6539C28.0241 15.6971 28.0035 15.7601 28.0039 15.8396C28.0035 15.7601 28.0241 15.6971 28.0673 15.6539C28.1096 15.612 28.171 15.5914 28.2481 15.5906ZM28.2521 15.5906C28.6506 15.5906 29.4652 16.1117 30.2596 16.9053C29.4652 16.1121 28.6506 15.5906 28.2521 15.5906Z" fill="#E9A9A2"/>
<path d="M28.2518 15.5906H28.2481C28.171 15.5914 28.1097 15.6116 28.0673 15.6539C28.0241 15.6971 28.0035 15.7601 28.0039 15.8396C28.0052 16.2392 28.5279 17.0555 29.3231 17.8508L30.2642 16.9098L30.2593 16.905C29.4649 16.1117 28.6502 15.5906 28.2518 15.5906Z" fill="#C2382C"/>
<path d="M20.0057 7.61108L5.0118 22.605C4.3054 23.3114 5.19626 25.3472 7.00157 27.1525C8.80688 28.9578 10.8426 29.8483 11.5491 29.1423L26.543 14.1483L20.0057 7.61108Z" fill="#5AABB3"/>
<path d="M22.0038 12.1497L7.00098 27.1525C8.38598 28.5375 9.90707 29.3844 10.8589 29.3844C11.1476 29.3844 11.3841 29.3065 11.5484 29.1423L26.5423 14.1483C26.3784 14.3061 26.1451 14.3811 25.8621 14.3811C24.9099 14.3816 23.3892 13.5347 22.0038 12.1497Z" fill="#277F8A"/>
<path d="M26.5518 14.1389C25.8454 14.8453 23.8096 13.9545 22.0043 12.1491C20.1991 10.3439 19.3085 8.30813 20.0146 7.60165C20.721 6.89524 22.7571 7.7861 24.5621 9.59141C26.3673 11.3966 27.2582 13.4328 26.5518 14.1389Z" fill="#6EBEC5"/>
<path d="M25.3011 12.888C24.9518 13.2372 23.7658 12.6168 22.6517 11.5025C21.5375 10.3884 20.9171 9.20238 21.2662 8.85317C21.6154 8.50395 22.8014 9.12442 23.9156 10.2386C25.0297 11.3528 25.6502 12.5392 25.3011 12.888Z" fill="white"/>
<path d="M25.0094 12.5969C24.7494 12.8569 23.766 12.2946 22.8125 11.3411C21.859 10.3875 21.2966 9.40418 21.5566 9.14426C21.8166 8.88433 22.8 9.4466 23.7534 10.4001C24.707 11.3536 25.2694 12.3369 25.0094 12.5969Z" fill="#6EBEC5"/>
<path d="M22.0034 12.1497C20.1982 10.3444 18.1628 9.45311 17.4559 10.1599L5.01132 22.605C4.30609 23.3102 5.19578 25.3468 7.00109 27.1525L7.08546 27.2316L7.0814 27.2357C7.80476 27.9737 8.37398 28.7434 8.74577 29.4451L23.7482 14.4426C23.3622 13.7144 22.766 12.9126 22.0034 12.1497Z" fill="#5AABB3"/>
<path d="M21.741 9.08081C21.6618 9.08081 21.5993 9.10144 21.5565 9.14417C21.5133 9.18737 21.4928 9.25034 21.4932 9.32987C21.4928 9.25034 21.5133 9.18737 21.5565 9.14417C21.5997 9.10144 21.6622 9.08081 21.741 9.08081C22.1394 9.08081 22.954 9.60198 23.7485 10.3956C22.9544 9.60237 22.1398 9.08081 21.741 9.08081Z" fill="#6EBEC5"/>
<path d="M21.741 9.08081C21.6618 9.08081 21.5993 9.10144 21.5565 9.14417C21.5133 9.18737 21.4928 9.25034 21.4932 9.32987C21.4944 9.72948 22.0172 10.5457 22.8124 11.341L23.7534 10.4L23.7486 10.3952C22.954 9.60198 22.1398 9.08081 21.741 9.08081Z" fill="#2F8E98"/>
</svg>
