<svg width="40" height="40" viewBox="0 0 40 40" fill="none" xmlns="http://www.w3.org/2000/svg">
<g clip-path="url(#clip0)">
<path d="M40 20C40 31.0458 31.0458 40 20 40C8.95416 40 0 31.0458 0 20C0 8.95416 8.95416 0 20 0C31.0458 0 40 8.95416 40 20Z" fill="#6E6E6E"/>
<path d="M39.9744 21.0287L21.0029 2.05713L20.0004 9.63525L18.6017 12.5076L5.06445 26.0446L18.9948 39.9749C19.3281 39.9914 19.6631 39.9999 20.0004 39.9999C30.7011 39.9999 39.4388 31.5963 39.9744 21.0287Z" fill="#5A5A5A"/>
<path d="M19.0039 32.0156H20.9967V36.0677H19.0039V32.0156Z" fill="#FFD400"/>
<path d="M20 32.0156H20.9973V36.0677H20V32.0156Z" fill="#FDBF00"/>
<path d="M24.9816 25.041C24.9816 27.791 22.7495 30.023 19.9996 30.023C17.2496 30.023 15.0176 27.791 15.0176 25.041H24.9816Z" fill="#FFD400"/>
<path d="M24.2274 29.8513L27.0463 32.6702L25.6373 34.0789L22.8184 31.26L24.2274 29.8513Z" fill="#FDBF00"/>
<path d="M15.773 29.8513L17.1817 31.2603L14.3631 34.0792L12.9541 32.6702L15.773 29.8513Z" fill="#FFD400"/>
<path d="M20 25.041H24.982C24.982 27.791 22.7499 30.023 20 30.023V25.041Z" fill="#FDBF00"/>
<path d="M19.0039 2.05713H20.9967V11.0912H19.0039V2.05713Z" fill="#5A5A5A"/>
<path d="M20 2.05713H20.9973V11.0912H20V2.05713Z" fill="#444444"/>
<path d="M26.975 17.0698H13.0254C13.0254 13.2236 16.1541 10.095 20.0002 10.095C23.8463 10.095 26.975 13.2236 26.975 17.0698Z" fill="#FF7816"/>
<path d="M26.9748 17.0698H20V10.095C23.8461 10.095 26.9748 13.2236 26.9748 17.0698Z" fill="#FF4B00"/>
<path d="M25.9781 16.0732H14.0213C9.07928 16.0732 5.05371 20.0985 5.05371 25.0408V26.0372H34.9457V25.0408C34.9457 20.0985 30.9201 16.0732 25.9781 16.0732Z" fill="#FF9F00"/>
<path d="M34.946 25.0408V26.0372H20V16.0732H25.9784C30.9204 16.0732 34.946 20.0985 34.946 25.0408Z" fill="#FF7816"/>
</g>
<defs>
<clipPath id="clip0">
<rect width="40" height="40" fill="white"/>
</clipPath>
</defs>
</svg>
