<svg width="40" height="40" viewBox="0 0 40 40" fill="none" xmlns="http://www.w3.org/2000/svg">
<g clip-path="url(#clip0)">
<path d="M40 20C40 31.0458 31.0458 40 20 40C8.95416 40 0 31.0458 0 20C0 8.95416 8.95416 0 20 0C31.0458 0 40 8.95416 40 20Z" fill="#6E6E6E"/>
<path d="M40 20C40 17.2803 39.4562 14.6878 38.4726 12.3239L31.8359 8.59375L8.39844 31.3281L12.3511 38.4839C14.7076 39.4601 17.2907 40 20 40C31.0458 40 40 31.0458 40 20Z" fill="#5A5A5A"/>
<path d="M9.125 8.14868C8.57272 8.14868 8.125 8.5964 8.125 9.14868V30.9013C8.125 31.4535 8.57272 31.9013 9.125 31.9013H30.8776C31.4299 31.9013 31.8776 31.4535 31.8776 30.9013V9.14868C31.8776 8.5964 31.4299 8.14868 30.8776 8.14868H9.125Z" fill="#FDFDFD"/>
<path d="M12.381 16.1279H10.9834V17.5242H12.381V16.1279Z" fill="#F3B41B"/>
<path d="M15.4132 16.1279H14.0156V17.5242H15.4132V16.1279Z" fill="#F3B41B"/>
<path d="M12.382 19.948H10.9844V21.3443H12.382V19.948Z" fill="#F3B41B"/>
<path d="M15.4132 23.5044H14.0156V24.9007H15.4132V23.5044Z" fill="#F3B41B"/>
<path d="M18.9327 23.5044H17.5352V24.9007H18.9327V23.5044Z" fill="#F3B41B"/>
<path d="M23.719 24.2209H28.562C28.7424 24.2209 28.8998 24.0986 28.9446 23.9239C28.988 23.7539 30.0086 20.3647 30.0086 17.9303C30.0086 11.0698 27.5908 10.5488 26.1496 10.5155C26.1436 10.5153 26.1375 10.5153 26.1314 10.5155C24.6902 10.5488 22.2725 11.0699 22.2725 17.9303C22.2725 20.3647 23.2931 23.7539 23.3365 23.9239C23.3812 24.0986 23.5386 24.2209 23.719 24.2209Z" fill="#EB6836"/>
<path d="M28.6681 24.9045H23.6145C23.3964 24.9045 23.2197 25.0813 23.2197 25.2993V27.7734C23.2197 29.2974 24.4596 30.5371 25.9834 30.5371H26.2993C27.8231 30.5371 29.063 29.2974 29.063 27.7734V25.2993C29.0629 25.0813 28.8862 24.9045 28.6681 24.9045Z" fill="#EB6836"/>
<path d="M24.2566 23.923C24.2132 23.753 23.1926 20.3638 23.1926 17.9294C23.1926 11.7444 25.1576 10.8169 26.6006 10.5596C26.4431 10.5315 26.2916 10.5179 26.1496 10.5145C26.1436 10.5144 26.1375 10.5144 26.1314 10.5145C24.6902 10.5479 22.2725 11.0689 22.2725 17.9293C22.2725 20.3637 23.2931 23.7529 23.3365 23.9229C23.3812 24.0977 23.5386 24.22 23.719 24.22H24.6392C24.4588 24.22 24.3013 24.0977 24.2566 23.923Z" fill="#C74B38"/>
<path d="M24.1398 27.7734V25.2993C24.1398 25.0813 24.3165 24.9045 24.5346 24.9045H23.6145C23.3964 24.9045 23.2197 25.0813 23.2197 25.2993V27.7734C23.2197 29.2974 24.4596 30.5371 25.9834 30.5371H26.2993C26.4014 30.5371 26.5021 30.5311 26.6014 30.5203C25.2192 30.3693 24.1398 29.1953 24.1398 27.7734Z" fill="#C74B38"/>
<path d="M11.1051 31.8773H8.52749C8.31814 31.8773 8.14844 31.7076 8.14844 31.4982V21.036C8.14844 20.8267 8.31814 20.657 8.52749 20.657H11.1051C11.3145 20.657 11.4842 20.8267 11.4842 21.036V31.4982C11.4842 31.7076 11.3145 31.8773 11.1051 31.8773Z" fill="#EF9D3C"/>
<path d="M8.60343 31.5742C8.51968 31.5742 8.45175 31.5064 8.45175 31.4226V20.6648C8.27869 20.6999 8.14844 20.8529 8.14844 21.0362V31.4984C8.14844 31.7078 8.31819 31.8775 8.52759 31.8775H11.1059C11.2893 31.8775 11.4423 31.7472 11.4775 31.5742H8.60343Z" fill="#E2771E"/>
<path d="M11.1052 20.6647H8.52749C8.31814 20.6647 8.14844 20.4758 8.14844 20.2427V8.59533C8.14844 8.36227 8.31814 8.17334 8.52749 8.17334H11.1052C11.3145 8.17334 11.4842 8.36227 11.4842 8.59533V20.2427C11.4842 20.4757 11.3145 20.6647 11.1052 20.6647Z" fill="#F7D04A"/>
<path d="M8.60435 20.3269C8.52043 20.3269 8.45236 20.2513 8.45236 20.158V8.17334C8.27895 8.21248 8.14844 8.38285 8.14844 8.58712V20.2424C8.14844 20.4756 8.31853 20.6647 8.52835 20.6647H11.1119C11.2957 20.6647 11.449 20.5196 11.4842 20.3269H8.60435Z" fill="#F3B41B"/>
<path d="M17.777 24.0941H15.1994C14.99 24.0941 14.8203 23.9244 14.8203 23.715V13.2528C14.8203 13.0435 14.99 12.8738 15.1994 12.8738H17.777C17.9864 12.8738 18.1561 13.0435 18.1561 13.2528V23.715C18.1561 23.9244 17.9864 24.0941 17.777 24.0941Z" fill="#F7D04A"/>
<path d="M15.2753 23.7908C15.1916 23.7908 15.1236 23.7229 15.1236 23.6392V12.8813C14.9506 12.9165 14.8203 13.0694 14.8203 13.2528V23.715C14.8203 23.9243 14.9901 24.094 15.1995 24.094H17.7778C17.9612 24.094 18.1142 23.9638 18.1493 23.7908H15.2753Z" fill="#F3B41B"/>
<path d="M21.112 31.8773H18.5343C18.325 31.8773 18.1553 31.7076 18.1553 31.4982V21.036C18.1553 20.8267 18.325 20.657 18.5343 20.657H21.112C21.3213 20.657 21.491 20.8267 21.491 21.036V31.4982C21.4911 31.7076 21.3213 31.8773 21.112 31.8773Z" fill="#F7D04A"/>
<path d="M18.6101 31.5742C18.5264 31.5742 18.4585 31.5064 18.4585 31.4226V20.6648C18.2855 20.6999 18.1553 20.8529 18.1553 21.0362V31.4984C18.1553 31.7078 18.325 31.8775 18.5343 31.8775H21.112C21.2953 31.8775 21.4483 31.7472 21.4834 31.5742H18.6101Z" fill="#F3B41B"/>
<path d="M14.441 31.8774H11.8634C11.6541 31.8774 11.4844 31.7077 11.4844 31.4984V17.296C11.4844 17.0867 11.6541 16.917 11.8634 16.917H14.4411C14.6504 16.917 14.8201 17.0867 14.8201 17.296V31.4984C14.8201 31.7077 14.6504 31.8774 14.441 31.8774Z" fill="#F7D04A"/>
<path d="M11.9392 31.5742C11.8555 31.5742 11.7876 31.5064 11.7876 31.4226V16.917C11.6146 16.9521 11.4844 17.1051 11.4844 17.2884V31.4984C11.4844 31.7077 11.6541 31.8774 11.8634 31.8774H14.4411C14.6244 31.8774 14.7774 31.7471 14.8125 31.5742H11.9392V31.5742Z" fill="#F3B41B"/>
<path d="M14.441 16.9169H11.8634C11.6541 16.9169 11.4844 16.7472 11.4844 16.5379V8.42592C11.4844 8.21658 11.6541 8.04688 11.8634 8.04688H14.4411C14.6504 8.04688 14.8201 8.21658 14.8201 8.42592V16.5379C14.8201 16.7472 14.6504 16.9169 14.441 16.9169Z" fill="#EF9D3C"/>
<path d="M11.9392 16.6147C11.8555 16.6147 11.7876 16.5468 11.7876 16.463V8.05542C11.6146 8.09055 11.4844 8.24348 11.4844 8.42685V16.5389C11.4844 16.7482 11.6541 16.9179 11.8634 16.9179H14.4411C14.6244 16.9179 14.7774 16.7877 14.8125 16.6147H11.9392Z" fill="#E2771E"/>
<path d="M17.777 31.8774H15.1994C14.99 31.8774 14.8203 31.7077 14.8203 31.4984V24.473C14.8203 24.2637 14.99 24.094 15.1994 24.094H17.777C17.9864 24.094 18.1561 24.2637 18.1561 24.473V31.4984C18.1561 31.7077 17.9864 31.8774 17.777 31.8774Z" fill="#EF9D3C"/>
<path d="M15.2753 31.574C15.1916 31.574 15.1236 31.5061 15.1236 31.4224V24.0938C14.9506 24.1289 14.8203 24.2818 14.8203 24.4652V31.4981C14.8203 31.7075 14.9901 31.8772 15.1995 31.8772H17.7778C17.9612 31.8772 18.1142 31.7469 18.1493 31.5739H15.2753V31.574Z" fill="#E2771E"/>
<path d="M13.3305 29.1094L14.0409 29.8191L13.3305 30.5288L12.6201 29.8191L13.3305 29.1094Z" fill="#FED2A4"/>
<path d="M16.5239 24.9219L17.2343 25.6316L16.5239 26.3413L15.8135 25.6316L16.5239 24.9219Z" fill="#FED2A4"/>
<path d="M19.7885 21.3733L20.4989 22.083L19.7885 22.7928L19.0781 22.083L19.7885 21.3733Z" fill="#FED2A4"/>
<path d="M9.78169 21.3733L10.4921 22.0829L9.78169 22.7928L9.07129 22.0829L9.78169 21.3733Z" fill="#FED2A4"/>
<path d="M13.1889 14.7019L13.8993 15.4116L13.1889 16.1214L12.4785 15.4116L13.1889 14.7019Z" fill="#FED2A4"/>
<path d="M16.5239 13.7083L17.2343 14.418L16.5239 15.1277L15.8135 14.418L16.5239 13.7083Z" fill="#FED2A4"/>
<path d="M9.78169 9.09497L10.4921 9.80471L9.78169 10.5144L9.07129 9.80471L9.78169 9.09497Z" fill="#FED2A4"/>
</g>
<defs>
<clipPath id="clip0">
<rect width="40" height="40" fill="white"/>
</clipPath>
</defs>
</svg>
