<svg width="40" height="40" viewBox="0 0 40 40" fill="none" xmlns="http://www.w3.org/2000/svg">
<path d="M20 40C31.0457 40 40 31.0457 40 20C40 8.9543 31.0457 0 20 0C8.9543 0 0 8.9543 0 20C0 31.0457 8.9543 40 20 40Z" fill="#6EBEC5"/>
<path d="M39.9697 21.0868L39.9629 21.08L39.9357 21.0528L24.7016 5.81886L24.1796 6.34089L23.4552 5.61651L23.016 6.05612L22.8924 5.93253L22.4684 5.50854C21.902 4.94214 20.9836 4.94214 20.4172 5.50854L6.33887 19.5864C5.77246 20.1528 5.77246 21.0712 6.33887 21.6376L6.88645 22.1852L6.44723 22.6244L7.19121 23.3684C6.31918 24.5052 6.40043 26.1432 7.44043 27.1828L20.2508 39.9932C30.8168 39.8632 39.4097 31.544 39.9697 21.0868Z" fill="#5EABB2"/>
<path d="M23.1066 21.4553L22.2862 22.2756L21.1214 21.1109C20.7646 20.7541 19.8614 20.8617 19.1358 21.5869L12.5414 28.1817C11.4103 29.3128 9.56987 29.3128 8.43861 28.1817L7.44018 27.1832C6.309 26.052 6.309 24.2117 7.44018 23.0804L24.7018 5.81885L25.5221 6.63924L8.26096 23.9008C7.58213 24.5796 7.58213 25.6836 8.26096 26.3624L9.2594 27.3608C9.93822 28.0396 11.0422 28.0396 11.721 27.3608L18.3153 20.7664C19.4465 19.6353 21.0733 19.4217 21.9421 20.2904L23.1066 21.4553Z" fill="white"/>
<path d="M25.8325 8.87277C26.3989 9.43918 26.3989 10.3575 25.8325 10.9243L11.7544 25.0024C11.188 25.5688 10.2696 25.5688 9.70324 25.0024L6.33887 21.638C5.77246 21.0716 5.77246 20.1532 6.33887 19.5868L20.4168 5.50879C20.9832 4.94238 21.9016 4.94238 22.468 5.50879L25.8325 8.87277Z" fill="#F1B14F"/>
<path d="M8.02148 23.3199L9.70391 25.0023C10.2703 25.5687 11.1887 25.5687 11.7555 25.0023L25.8334 10.9243C26.3998 10.3579 26.3998 9.43958 25.8334 8.87317L24.1511 7.19067L8.02148 23.3199Z" fill="#ED9E24"/>
<path d="M8.77406 24.9515L9.21328 24.5122L6.88648 22.1855L6.44727 22.6247L8.77406 24.9515ZM23.0161 6.05592L25.3429 8.38272L25.7821 7.9435L23.4553 5.6167L23.0161 6.05592Z" fill="white"/>
<path d="M8.77371 24.9516L9.21293 24.5124L8.00855 23.308L7.56934 23.7472L8.77371 24.9516ZM24.1382 7.17848L25.3425 8.38285L25.7818 7.94363L24.5774 6.73926L24.1382 7.17848Z" fill="#CEEAF2"/>
<path d="M21.2871 23.2676L28.8747 30.8552C29.6511 31.6316 30.9099 31.6316 31.6862 30.8552C32.4626 30.0788 32.4627 28.82 31.6862 28.0436L24.0983 20.4561L21.2871 23.2676Z" fill="#E46A5D"/>
</svg>
