<svg width="40" height="40" viewBox="0 0 40 40" fill="none" xmlns="http://www.w3.org/2000/svg">
<path d="M20 40C31.0457 40 40 31.0457 40 20C40 8.9543 31.0457 0 20 0C8.9543 0 0 8.9543 0 20C0 31.0457 8.9543 40 20 40Z" fill="#E36254"/>
<path d="M34.1409 34.1421C38.4757 29.8073 40.4006 23.9777 39.9238 18.3124L39.8641 18.2528L26.0745 4.46362L5.2793 25.2589L11.1725 31.1521L10.9773 31.3473L19.6213 39.9913C24.8649 40.0896 30.1397 38.1436 34.1409 34.1421Z" fill="#D25346"/>
<path d="M25.2854 18.8799L18.825 25.3403C18.539 25.6263 18.539 26.0903 18.825 26.3767L19.4814 27.0331C19.7674 27.3191 20.2314 27.3191 20.5178 27.0331L26.9782 20.5727C27.2642 20.2867 27.2642 19.8227 26.9782 19.5363L26.3218 18.8799C26.0354 18.5935 25.5714 18.5935 25.2854 18.8799ZM14.3082 29.8255C13.8322 30.3016 13.8322 31.0735 14.3082 31.5495C14.7842 32.0255 15.5562 32.0255 16.0322 31.5495C16.5082 31.0735 16.5082 30.3016 16.0322 29.8255C15.5562 29.3495 14.7846 29.3495 14.3082 29.8255ZM29.7705 14.3631C29.2945 14.8391 29.2945 15.6111 29.7705 16.0871C30.2465 16.5631 31.0185 16.5631 31.4945 16.0871C31.9705 15.6111 31.9705 14.8391 31.4945 14.3631C31.0186 13.8871 30.2469 13.8871 29.7705 14.3631Z" fill="white"/>
<path d="M10.9785 31.3471L14.5117 34.8803L34.8261 14.5659L31.2929 11.0327L10.9785 31.3471ZM16.0333 31.5495C15.5573 32.0255 14.7853 32.0255 14.3093 31.5495C13.8333 31.0735 13.8333 30.3015 14.3093 29.8255C14.7853 29.3495 15.5573 29.3495 16.0333 29.8255C16.5093 30.3015 16.5093 31.0735 16.0333 31.5495ZM26.9789 19.5363C27.2649 19.8223 27.2649 20.2863 26.9789 20.5727L20.5185 27.0331C20.2325 27.3191 19.7685 27.3191 19.4821 27.0331L18.8257 26.3767C18.5397 26.0907 18.5397 25.6267 18.8257 25.3403L25.2861 18.8799C25.5721 18.5939 26.0361 18.5939 26.3225 18.8799L26.9789 19.5363ZM31.4957 16.0871C31.0197 16.5631 30.2477 16.5631 29.7717 16.0871C29.2957 15.6111 29.2957 14.8391 29.7717 14.3631C30.2477 13.8871 31.0197 13.8871 31.4957 14.3631C31.9716 14.8391 31.9716 15.6111 31.4957 16.0871Z" fill="#F1B14F"/>
<path d="M31.4958 14.3631C31.9718 14.8392 31.9718 15.6111 31.4958 16.0871C31.0198 16.5631 30.2479 16.5631 29.7718 16.0871L26.6511 19.2079L26.9795 19.5363C27.2655 19.8224 27.2655 20.2863 26.9795 20.5727L20.5187 27.0331C20.2327 27.3191 19.7687 27.3191 19.4823 27.0331L19.1539 26.7047L16.0331 29.8255C16.5091 30.3015 16.5091 31.0734 16.0331 31.5495C15.5571 32.0255 14.7851 32.0255 14.3091 31.5495L12.7451 33.1134L14.5119 34.8802L34.8263 14.5659L33.0595 12.7991L31.4958 14.3631Z" fill="#ED9E24"/>
<path d="M14.5107 34.8805L15.0255 34.3657L11.4923 30.8325L10.9775 31.3473L14.5107 34.8805ZM30.8084 11.5165L34.3416 15.0497L34.8564 14.5349L31.3232 11.0017L30.8084 11.5165Z" fill="#3194B0"/>
<path d="M14.5119 34.8804L15.0267 34.3656L13.2599 32.5988L12.7451 33.1136L14.5119 34.8804ZM32.576 13.2828L34.3428 15.0496L34.8575 14.5349L33.0907 12.7681L32.576 13.2828Z" fill="#2B8199"/>
<path d="M30.987 16.0777L31.457 15.6077L30.2425 14.3932L29.7725 14.8632L30.987 16.0777Z" fill="#68C4DE"/>
<path d="M15.497 29.8279H14.832V31.5447H15.497V29.8279Z" fill="#68C4DE"/>
<path d="M19.9117 26.4697L26.4707 19.9106L25.9378 19.3778L19.3788 25.9368L19.9117 26.4697Z" fill="#68C4DE"/>
<path d="M29.4268 14.0181C28.7608 14.6841 28.7608 15.7673 29.4268 16.4328C30.0928 17.0988 31.176 17.0988 31.8415 16.4328C32.5075 15.7668 32.5075 14.6836 31.8415 14.0176C31.176 13.3521 30.0923 13.3521 29.4268 14.0181ZM31.4964 16.0873C31.0204 16.5633 30.2484 16.5633 29.7724 16.0873C29.2964 15.6113 29.2964 14.8393 29.7724 14.3633C30.2484 13.8873 31.0204 13.8873 31.4964 14.3633C31.9723 14.8393 31.9723 15.6113 31.4964 16.0873ZM13.9644 29.4805C13.2983 30.1465 13.2983 31.2297 13.9644 31.8957C14.6304 32.5617 15.7136 32.5617 16.3796 31.8957C17.0456 31.2297 17.0456 30.1465 16.3796 29.4805C15.7136 28.8145 14.63 28.8145 13.9644 29.4805ZM16.034 31.5497C15.5579 32.0257 14.786 32.0257 14.31 31.5497C13.834 31.0737 13.834 30.3017 14.31 29.8257C14.786 29.3497 15.5579 29.3497 16.034 29.8257C16.51 30.3016 16.51 31.0737 16.034 31.5497ZM24.9411 18.5345L18.4808 24.9949C18.0047 25.4709 18.0047 26.246 18.4808 26.722L19.1372 27.3784C19.6136 27.8545 20.3883 27.8545 20.8643 27.3784L27.3247 20.9181C27.8008 20.442 27.8008 19.6669 27.3247 19.1909L26.6683 18.5345C26.1923 18.0585 25.4176 18.0585 24.9411 18.5345ZM26.9796 19.5365C27.2656 19.8225 27.2656 20.2865 26.9796 20.5729L20.5192 27.0333C20.2332 27.3193 19.7692 27.3193 19.4828 27.0333L18.8264 26.3769C18.5404 26.0909 18.5404 25.6269 18.8264 25.3405L25.2868 18.8801C25.5728 18.5941 26.0368 18.5941 26.3232 18.8801L26.9796 19.5365Z" fill="#6EBEC5"/>
<path d="M29.1585 7.54761L26.0745 4.46362L5.2793 25.2589L8.36328 28.3428L29.1585 7.54761ZM26.7353 6.25323C26.8849 6.10362 27.1293 6.10526 27.2809 6.25683C27.4325 6.40839 27.4341 6.65284 27.2845 6.80245C27.1349 6.95206 26.8906 6.95042 26.7389 6.79886C26.5869 6.64722 26.5853 6.40323 26.7353 6.25323Z" fill="white"/>
<path d="M9.5023 25.7091L10.2555 26.4623L10.5067 26.2111L9.75348 25.4579L9.5023 25.7091ZM13.2687 21.9431L14.0219 22.6963L14.2731 22.4451L13.5199 21.6919L13.2687 21.9431ZM10.7579 24.4538L11.5111 25.207L11.7622 24.9559L11.009 24.2027L10.7579 24.4538ZM12.0131 23.1983L12.7663 23.9515L13.0175 23.7003L12.2643 22.9471L12.0131 23.1983ZM15.7795 19.4323L16.5327 20.1855L16.7839 19.9343L16.0307 19.1811L15.7795 19.4323ZM14.5239 20.6878L15.2771 21.441L15.5282 21.1899L14.775 20.4367L14.5239 20.6878ZM8.24707 26.9646L9.00027 27.7178L9.25144 27.4667L8.49824 26.7134L8.24707 26.9646ZM22.0563 13.1555L22.8095 13.9087L23.0607 13.6575L22.3075 12.9043L22.0563 13.1555ZM20.8007 14.4106L21.5539 15.1638L21.805 14.9127L21.0518 14.1599L20.8007 14.4106ZM23.3114 11.9002L24.0646 12.6534L24.3158 12.4023L23.5626 11.6491L23.3114 11.9002ZM27.3287 7.88306L27.0775 8.13423L27.8307 8.88743L28.0819 8.63626L27.3287 7.88306ZM25.8223 9.38946L26.5755 10.1427L26.8267 9.89149L26.0735 9.13829L25.8223 9.38946ZM24.5671 10.6446L25.3203 11.3978L25.5714 11.1467L24.8182 10.3934L24.5671 10.6446ZM17.0346 18.177L17.7878 18.9302L18.039 18.6791L17.2858 17.9259L17.0346 18.177ZM19.5455 15.6663L20.2987 16.4195L20.5499 16.1683L19.7967 15.4151L19.5455 15.6663ZM18.2899 16.9214L19.0431 17.6746L19.2943 17.4234L18.5411 16.6702L18.2899 16.9214ZM26.8046 9.16024L27.1814 9.53704L27.4326 9.28587L27.0558 8.90907L26.8046 9.16024ZM18.0171 17.9478L18.3939 18.3246L18.645 18.0734L18.2682 17.6967L18.0171 17.9478ZM20.5278 15.437L20.9046 15.8138L21.1558 15.5627L20.779 15.1859L20.5278 15.437ZM19.2723 16.6927L19.6491 17.0695L19.9003 16.8183L19.5235 16.4415L19.2723 16.6927ZM15.5063 20.4587L15.8831 20.8355L16.1343 20.5843L15.7575 20.2075L15.5063 20.4587ZM16.7614 19.2031L17.1382 19.5799L17.3894 19.3287L17.0126 18.9519L16.7614 19.2031ZM24.2939 11.671L24.6707 12.0478L24.9218 11.7966L24.545 11.4199L24.2939 11.671ZM25.5491 10.4155L25.9259 10.7923L26.1771 10.5411L25.8003 10.1643L25.5491 10.4155ZM23.0387 12.9263L23.4155 13.3031L23.6667 13.0519L23.2899 12.6751L23.0387 12.9263ZM21.7831 14.1819L22.1599 14.5587L22.4111 14.3075L22.0343 13.9307L21.7831 14.1819ZM11.7403 24.2246L12.1171 24.6014L12.3682 24.3502L11.9914 23.9734L11.7403 24.2246ZM9.22949 26.7355L9.60629 27.1123L9.85746 26.8611L9.48066 26.4842L9.22949 26.7355ZM14.2507 21.7138L14.6275 22.0906L14.8786 21.8395L14.5018 21.4627L14.2507 21.7138ZM12.9955 22.9695L13.3723 23.3463L13.6235 23.0951L13.2467 22.7183L12.9955 22.9695ZM10.4846 25.4802L10.8614 25.857L11.1126 25.6059L10.7358 25.2291L10.4846 25.4802Z" fill="#CEEAF2"/>
</svg>
