<svg width="40" height="40" viewBox="0 0 40 40" fill="none" xmlns="http://www.w3.org/2000/svg">
<g clip-path="url(#clip0)">
<path d="M20 40C31.0457 40 40 31.0457 40 20C40 8.9543 31.0457 0 20 0C8.9543 0 0 8.9543 0 20C0 31.0457 8.9543 40 20 40Z" fill="#69C4D2"/>
<path d="M34.8651 17.8761L33.3993 16.4103L33.3834 16.4261C32.5817 15.7648 31.5543 15.3676 30.4337 15.3676C28.6394 15.3676 27.084 16.3862 26.3114 17.8761H26.2481C25.1786 17.8761 24.1594 18.0954 23.2327 18.4905L11.7923 7.05029H7.44449V24.1862H6.34668V27.6645H7.44449V29.3319C7.44449 31.3034 8.18856 33.1037 9.40926 34.4693L9.3998 34.4787L14.0075 39.0864C15.8992 39.6796 17.9117 39.9998 19.9989 39.9998C30.6903 39.9998 39.4219 31.6107 39.9712 21.0562L36.7912 17.8762L34.8651 17.8761Z" fill="#589DA4"/>
<path d="M15.1624 37.049C10.9072 37.049 7.44531 33.5871 7.44531 29.3319V7.05029H11.7931V29.3319C11.7931 31.1897 13.3046 32.7011 15.1624 32.7011C17.0202 32.7011 18.5317 31.1897 18.5317 29.3319V25.5933C18.5317 21.338 21.9937 17.8762 26.2488 17.8762H36.792V22.224H26.2488C24.391 22.224 22.8795 23.7355 22.8795 25.5933V29.3319C22.8795 33.5871 19.4176 37.049 15.1624 37.049Z" fill="#D9D8DB"/>
<path d="M12.8694 24.186H6.34766V27.6643H12.8694V24.186Z" fill="#57565C"/>
<path d="M23.9993 24.186H17.3906V27.6643H23.9993V24.186Z" fill="#57565C"/>
<path d="M30.435 17.9763C31.5563 17.9763 32.4683 18.8885 32.4683 20.0096C32.4683 21.1307 31.5561 22.0429 30.435 22.0429C29.3139 22.0429 28.4017 21.1307 28.4017 20.0096C28.4017 18.8885 29.3138 17.9763 30.435 17.9763ZM30.435 15.3677C27.8713 15.3677 25.793 17.446 25.793 20.0097C25.793 22.5735 27.8713 24.6517 30.435 24.6517C32.9988 24.6517 35.077 22.5735 35.077 20.0097C35.077 17.446 32.9988 15.3677 30.435 15.3677Z" fill="#E25F3F"/>
<path d="M30.4355 15.3677V17.9763C31.5568 17.9763 32.4688 18.8885 32.4688 20.0096C32.4688 21.1307 31.5566 22.0429 30.4355 22.0429V24.6516C32.9993 24.6516 35.0776 22.5733 35.0776 20.0095C35.0776 17.446 32.9993 15.3677 30.4355 15.3677Z" fill="#C24729"/>
</g>
<defs>
<clipPath id="clip0">
<rect width="40" height="40" fill="white"/>
</clipPath>
</defs>
</svg>
