<svg width="40" height="40" viewBox="0 0 40 40" fill="none" xmlns="http://www.w3.org/2000/svg">
<path d="M20 39.9998C31.0457 39.9998 40 31.0455 40 19.9998C40 8.95406 31.0457 -0.000244141 20 -0.000244141C8.9543 -0.000244141 0 8.95406 0 19.9998C0 31.0455 8.9543 39.9998 20 39.9998Z" fill="#65BA70"/>
<path d="M37.5259 15.8237H35.1781L4.74332 15.8237H2.39551L2.39551 24.4324L17.8473 39.8843C18.5545 39.96 19.2723 39.9998 19.9996 39.9998C31.0453 39.9998 39.9996 31.0454 39.9996 19.9998C39.9996 19.399 39.9716 18.8049 39.9197 18.2176L37.5259 15.8237Z" fill="#488E53"/>
<path d="M37.527 15.8235L2.39648 15.8235L2.39648 24.4322H37.527V15.8235Z" fill="#57565C"/>
<path d="M37.5262 15.8232L19.9609 15.8232V24.4319H37.5262V15.8232Z" fill="#3E3E42"/>
<path d="M35.1779 15.8232L4.74316 15.8232L4.74316 24.4319H35.1779V15.8232Z" fill="#F9C943"/>
<path d="M35.1784 15.8232H19.9609V24.4319H35.1784V15.8232Z" fill="#EA971E"/>
<path d="M8.78703 22.826C10.3478 22.826 11.6131 21.5607 11.6131 19.9999C11.6131 18.4391 10.3478 17.1738 8.78703 17.1738C7.22622 17.1738 5.96094 18.4391 5.96094 19.9999C5.96094 21.5607 7.22622 22.826 8.78703 22.826Z" fill="#57565C"/>
<path d="M24.0479 15.8232H15.9609V18.9129H24.0479V15.8232Z" fill="#57565C"/>
<path d="M24.0479 15.8232H15.9609V18.9129H24.0479V15.8232Z" fill="#57565C"/>
<path d="M24.0479 15.8232H19.9609V18.9129H24.0479V15.8232Z" fill="#3E3E42"/>
<path d="M22.7439 15.8235H17.1787V17.8261H22.7439V15.8235Z" fill="#C9E1F6"/>
<path d="M22.7435 15.8232H19.9609V17.8258H22.7435V15.8232Z" fill="#5F98D1"/>
<path d="M8.78711 17.1738V22.826C10.3479 22.826 11.6132 21.5607 11.6132 19.9999C11.6132 18.4391 10.3479 17.1738 8.78711 17.1738Z" fill="#3E3E42"/>
<path d="M8.78742 21.6954C9.72389 21.6954 10.483 20.9363 10.483 19.9998C10.483 19.0634 9.72389 18.3042 8.78742 18.3042C7.85095 18.3042 7.0918 19.0634 7.0918 19.9998C7.0918 20.9363 7.85095 21.6954 8.78742 21.6954Z" fill="#D9D8DB"/>
<path d="M10.4827 19.9996C10.4827 19.0631 9.7236 18.304 8.78711 18.304V21.6953C9.72352 21.6952 10.4827 20.9361 10.4827 19.9996Z" fill="#C6C5CA"/>
</svg>
