<svg width="40" height="40" viewBox="0 0 40 40" fill="none" xmlns="http://www.w3.org/2000/svg">
<path d="M5.85775 34.1419C-1.95258 26.3316 -1.95258 13.6685 5.85775 5.85775C13.6681 -1.95258 26.3312 -1.95258 34.1419 5.85775C41.9522 13.6681 41.9522 26.3312 34.1419 34.1419C26.3312 41.9526 13.6681 41.9526 5.85775 34.1419Z" fill="#6EBEC5"/>
<path d="M34.1425 34.1418C37.1949 31.0894 39.0489 27.2951 39.7153 23.3395L21.6383 5.26242C21.1858 4.81 20.593 4.58398 20.0007 4.58398C19.4079 4.58398 18.8155 4.81 18.3631 5.26242L5.26324 18.3623C4.35887 19.2667 4.35887 20.7331 5.26324 21.6375L23.3407 39.7146C27.2958 39.0482 31.0901 37.1942 34.1425 34.1418Z" fill="#589DA4"/>
<path d="M21.6374 34.7375C20.733 35.6419 19.2666 35.6419 18.3622 34.7375L5.26226 21.6376C4.35789 20.7332 4.35789 19.2668 5.26226 18.3624L18.3622 5.2625C19.2665 4.35814 20.7329 4.35814 21.6374 5.2625L34.7373 18.3624C35.6416 19.2668 35.6416 20.7332 34.7373 21.6376L21.6374 34.7375Z" fill="white"/>
<path d="M34.7365 18.3623L21.6366 5.26242C21.1842 4.81039 20.5918 4.58398 19.999 4.58398V35.4158C20.5918 35.4158 21.1842 35.1898 21.6366 34.7373L34.7365 21.6374C35.6408 20.7331 35.6408 19.2668 34.7365 18.3623Z" fill="#CEEAF2"/>
<path d="M20.0001 34.1522C19.7189 34.1522 19.4549 34.043 19.2557 33.8442L6.15545 20.7443C5.74506 20.3339 5.74506 19.6664 6.15545 19.2559L19.2557 6.15562C19.4549 5.95719 19.7185 5.84766 20.0001 5.84766C20.2813 5.84766 20.5457 5.95687 20.7449 6.15609L33.8448 19.256C34.044 19.4552 34.1532 19.7192 34.1532 20.0004C34.1532 20.2815 34.044 20.5456 33.8448 20.7443L20.7449 33.845C20.5457 34.043 20.2813 34.1522 20.0001 34.1522Z" fill="#E46A5D"/>
<path d="M33.8447 19.2557L20.7448 6.15585C20.5455 5.95663 20.2812 5.84741 20 5.84741V34.1524C20.2812 34.1524 20.5456 34.0432 20.7448 33.8444L33.8447 20.7438C34.0439 20.5454 34.1531 20.281 34.1531 19.9998C34.153 19.7186 34.0438 19.455 33.8447 19.2557Z" fill="#D45446"/>
<path d="M19.9998 32.5046L7.49512 20L19.9998 7.49561L32.5041 19.9999L19.9998 32.5046ZM9.28151 20L19.9999 30.7187L30.7182 20L19.9998 9.28161L9.28151 20Z" fill="#F1B14F"/>
<path d="M19.9978 32.5041L32.502 20L32.5019 19.9999L19.9978 32.5041L19.9978 32.5041Z" fill="#D34837"/>
<path d="M20.0004 7.496V9.282L30.7184 20L20.0004 30.7182V32.5046L32.5044 20L20 7.49561L20.0004 7.496Z" fill="#F0973E"/>
<path d="M21.3767 23.7787L22.7875 17.668L19.0011 19.1287L20.1251 14.26H18.583L16.9219 21.4563L20.7083 19.9955L19.8347 23.7787H19.0683L19.9911 26.4415L22.1435 23.7787H21.3767Z" fill="white"/>
</svg>
