<svg width="40" height="40" viewBox="0 0 40 40" fill="none" xmlns="http://www.w3.org/2000/svg">
<path d="M20 0C8.95445 0 0 8.95445 0 20C0 31.0455 8.95445 40 20 40C31.0455 40 40 31.0455 40 20C40 8.95445 31.0455 0 20 0Z" fill="#6EBEC5"/>
<path d="M19.9844 40.0007H19.9997H19.9844ZM20.016 40.0007H19.9997H20.016ZM20.0317 40.0007H20.0183H20.0317ZM20.0472 40.0007H20.0374H20.0472ZM20.0629 40.0007H20.0549H20.0629ZM20.0792 40.0007H20.0706H20.0792ZM20.0949 40.0003H20.086H20.0949ZM20.1107 40.0003H20.1022H20.1107ZM20.1265 40.0003H20.1184H20.1265ZM20.1427 40.0003H20.1343H20.1427ZM20.1586 39.9998H20.15H20.1586ZM20.1739 39.9998H20.1662H20.1739ZM20.1902 39.9998H20.1821H20.1902ZM20.2055 39.9993H20.1978H20.2055ZM20.2213 39.9993H20.2136H20.2213ZM20.2375 39.9993H20.2298H20.2375ZM20.2529 39.9989H20.2452H20.2529ZM20.2679 39.9989H20.2614H20.2679ZM20.2833 39.9984H20.2773H20.2833ZM20.2979 39.9984H20.2934H20.2979ZM20.3121 39.998H20.3092H20.3121ZM20.4173 39.9957H20.4169H20.4173ZM20.4336 39.9957H20.4311H20.4336ZM20.4485 39.9953H20.4474H20.4485ZM20.464 39.9948H20.4627H20.464ZM20.4797 39.9944H20.4781H20.4797ZM20.4956 39.9938H20.4931H20.4956ZM20.5102 39.9934H20.5098H20.5102Z" fill="#FED9CA"/>
<path d="M35.8184 17.2938L31.0949 22.0174H26.0122H31.0953V26.0953H19.6191V27.2696V28.3729V29.6247H8.77906H6.09375V22.0435V17.9659V22.0439V29.6251L16.3089 39.6545C17.4966 39.8762 18.7189 39.9981 19.9703 40.0001H19.9845H19.9998H20.0159H20.0184H20.0317H20.0373H20.047H20.0547H20.0627H20.0704H20.0789H20.0858H20.0947H20.102H20.1105H20.1181H20.1262H20.1338H20.1423H20.1496H20.1581H20.1658H20.1734H20.1815H20.1895H20.1972H20.2048H20.2129H20.2205H20.2286H20.2362H20.2439H20.2516H20.26H20.2665H20.2758H20.2819H20.2916H20.296H20.3073H20.3102L20.3998 39.9984L20.4147 39.9981H20.4151L20.4284 39.9977H20.4309L20.445 39.9973H20.4462L20.4603 39.9969H20.4616L20.4757 39.9965H20.4773L20.4907 39.9961H20.4931L20.5073 39.9957H20.5077L20.5226 39.9953H20.523C30.8334 39.7301 39.1969 31.6601 39.9392 21.4748L35.8184 17.2938ZM30.7091 13.2424L26.6573 17.2938L30.7091 13.2424ZM30.7091 13.2424V17.2941H34.4237L30.7091 13.2424ZM22.369 7.09399C22.2451 7.09399 22.1211 7.24009 22.0275 7.53282L20.873 11.1264L19.6191 9.73329V10.9649V12.0682V13.2425H25.6796H28.5885L28.5869 13.2401C28.5287 13.167 22.6087 7.27688 22.5506 7.20384C22.4929 7.13071 22.4312 7.09399 22.369 7.09399Z" fill="#589DA4"/>
<path d="M11.2041 26.0955V22.0171H31.0955V26.0955H11.2041Z" fill="#D45446"/>
<path d="M11.2041 22.0171L15.9276 17.2937H35.819L31.0955 22.0171H11.2041Z" fill="#E46A5D"/>
<path d="M32.5666 18.1524L29.5599 21.1591C29.3997 21.3193 29.5296 21.4497 29.8506 21.4497C30.1715 21.4497 30.5614 21.3197 30.7221 21.1591L33.7288 18.1524C33.889 17.9922 33.7591 17.8618 33.4382 17.8618C33.1168 17.8618 32.7268 17.9922 32.5666 18.1524ZM29.725 18.8642C29.4025 18.8642 29.0149 18.9933 28.8535 19.1548C28.6936 19.3146 28.8216 19.4454 29.1441 19.4454C29.4634 19.4454 29.8558 19.3146 30.0157 19.1548C30.1767 18.9933 30.0448 18.8642 29.725 18.8642ZM28.7232 19.8661C28.4006 19.8661 28.0114 19.9969 27.8516 20.1567C27.6901 20.3178 27.8197 20.4474 28.1422 20.4474C28.4615 20.4474 28.8523 20.3182 29.0138 20.1567C29.1732 19.9969 29.0424 19.8661 28.7232 19.8661ZM31.0524 17.9462C30.9991 17.8925 30.8812 17.8618 30.7274 17.8618C30.5732 17.8618 30.3915 17.8925 30.2292 17.9474C30.0682 18.001 29.9314 18.0765 29.8558 18.1521C29.7803 18.2275 29.7658 18.3031 29.8195 18.3567C29.8748 18.412 29.9923 18.4423 30.146 18.4423C30.297 18.4423 30.4787 18.4116 30.641 18.3567C30.9639 18.2497 31.1602 18.0567 31.0524 17.9462ZM28.0446 20.954C27.9925 20.8987 27.8746 20.8685 27.7208 20.8685C27.5666 20.8685 27.3849 20.8992 27.2227 20.954C27.0616 21.0077 26.9252 21.0831 26.8492 21.1587C26.7721 21.2358 26.7592 21.3097 26.8129 21.3634C26.8682 21.4187 26.9857 21.4489 27.1399 21.4489C27.2909 21.4489 27.4725 21.4182 27.6348 21.3634C27.9602 21.2563 28.1535 21.063 28.0446 20.954ZM25.2995 21.1591L28.3061 18.1524C28.4664 17.9922 28.3364 17.8618 28.0155 17.8618C27.6946 17.8618 27.3046 17.9918 27.1439 18.1524L24.1373 21.1591C23.9771 21.3193 24.107 21.4497 24.4279 21.4497C24.7489 21.4493 25.1392 21.3193 25.2995 21.1591ZM21.3914 21.3649C21.4451 21.4186 21.563 21.4493 21.7168 21.4493C21.8706 21.4493 22.0523 21.4186 22.2149 21.3638C22.5371 21.2564 22.7317 21.0618 22.6247 20.954C22.5694 20.8987 22.4519 20.8685 22.2982 20.8685C22.1467 20.8685 21.9655 20.8992 21.8028 20.954C21.6385 21.0077 21.5037 21.082 21.4266 21.1587C21.3495 21.2358 21.3366 21.31 21.3914 21.3649ZM22.7192 20.4474C23.0413 20.4474 23.4309 20.3166 23.5907 20.1567C23.7506 19.9969 23.6226 19.8661 23.3001 19.8661C22.9804 19.8661 22.5884 19.9969 22.4285 20.1567C22.2686 20.3166 22.3995 20.4474 22.7192 20.4474ZM24.4328 18.1524C24.3573 18.2279 24.3428 18.3035 24.3992 18.3571C24.4517 18.4124 24.5692 18.4427 24.723 18.4427C24.8768 18.4427 25.0585 18.412 25.2211 18.3571C25.5432 18.2498 25.7366 18.0563 25.6309 17.9474C25.5784 17.8921 25.4577 17.8618 25.3039 17.8618C25.153 17.8618 24.9713 17.8925 24.8086 17.9474C24.6447 18.0015 24.5099 18.0753 24.4328 18.1524ZM23.7211 19.445C24.0432 19.445 24.4328 19.3142 24.5927 19.1544C24.7538 18.9933 24.6246 18.8638 24.3021 18.8638C23.9824 18.8638 23.592 18.9929 23.4305 19.1544C23.271 19.3142 23.4014 19.445 23.7211 19.445ZM19.8772 21.1591L22.8839 18.1524C23.0441 17.9922 22.9142 17.8618 22.5932 17.8618C22.2723 17.8618 21.8824 17.9918 21.7217 18.1524L18.715 21.1591C18.5548 21.3193 18.6847 21.4497 19.0056 21.4497C19.3266 21.4493 19.717 21.3193 19.8772 21.1591ZM17.2989 20.4474C17.6182 20.4474 18.009 20.3182 18.1705 20.1567C18.3303 19.9969 18.1996 19.8661 17.8799 19.8661C17.5573 19.8661 17.1681 19.9969 17.0083 20.1567C16.8472 20.3178 16.9764 20.4474 17.2989 20.4474ZM18.3009 19.445C18.6202 19.445 19.0126 19.3142 19.1724 19.1544C19.3335 18.9933 19.2015 18.8638 18.8818 18.8638C18.5592 18.8638 18.1717 18.9929 18.0103 19.1544C17.8507 19.3142 17.9783 19.445 18.3009 19.445ZM15.97 21.3638C16.0225 21.4191 16.1428 21.4493 16.297 21.4493C16.448 21.4493 16.6296 21.4186 16.7923 21.3638C17.1144 21.2564 17.309 21.0618 17.2021 20.954C17.1496 20.8987 17.0292 20.8685 16.8783 20.8685C16.7241 20.8685 16.5456 20.8992 16.3802 20.954C16.2187 21.0077 16.0794 21.0831 16.0039 21.1587C15.926 21.2358 15.9164 21.31 15.97 21.3638ZM19.0093 18.1524C18.9339 18.2279 18.9225 18.3035 18.9762 18.3571C19.0315 18.4124 19.149 18.4427 19.3031 18.4427C19.4542 18.4427 19.6358 18.412 19.7985 18.3571C20.1206 18.2498 20.3152 18.0552 20.2082 17.9474C20.1557 17.8921 20.035 17.8618 19.8845 17.8618C19.7303 17.8618 19.549 17.8925 19.3864 17.9474C19.2245 18.0015 19.0864 18.0753 19.0093 18.1524ZM14.4554 21.1591L17.4621 18.1524C17.6223 17.9922 17.4924 17.8618 17.1714 17.8618C16.8505 17.8618 16.4606 17.9918 16.2999 18.1524L13.2932 21.1591C13.133 21.3193 13.2629 21.4497 13.5839 21.4497C13.9048 21.4493 14.2947 21.3193 14.4554 21.1591Z" fill="#D45446"/>
<path d="M27.1462 22.0171H26.043V22.0437H26.066V26.0954H26.043H27.1462V22.0171ZM29.8634 22.0171H28.7602V26.0951H29.8634V22.0171Z" fill="#D04E41"/>
<path d="M35.8192 21.3721L31.0957 26.0956V22.0171L35.8192 17.2937V21.3721Z" fill="#BF4739"/>
<path d="M6.09375 22.044V17.9661H25.9855V22.044H6.09375Z" fill="#D45446"/>
<path d="M6.09375 17.9659L10.8172 13.2424H30.7091L25.9855 17.9659H6.09375Z" fill="#E46A5D"/>
<path d="M27.4572 14.1005L24.4506 17.1072C24.2903 17.2674 24.4203 17.3978 24.7412 17.3978C25.0621 17.3978 25.4521 17.2678 25.6128 17.1072L28.6194 14.1005C28.7796 13.9403 28.6497 13.8099 28.3288 13.8099C28.0078 13.8102 27.6179 13.9402 27.4572 14.1005ZM24.6161 14.8122C24.2935 14.8122 23.906 14.9413 23.7446 15.1028C23.5847 15.2626 23.7127 15.3934 24.0352 15.3934C24.3545 15.3934 24.7469 15.2626 24.9067 15.1028C25.0678 14.9418 24.9354 14.8122 24.6161 14.8122ZM23.6142 15.8145C23.2916 15.8145 22.9024 15.9453 22.7426 16.1051C22.5815 16.2662 22.7107 16.3958 23.0332 16.3958C23.3525 16.3958 23.7433 16.2666 23.9048 16.1051C24.0643 15.9453 23.9335 15.8145 23.6142 15.8145ZM25.9435 13.8946C25.8902 13.8409 25.7723 13.8102 25.6185 13.8102C25.4642 13.8102 25.2826 13.8405 25.1203 13.8958C24.9589 13.9494 24.8224 14.0249 24.7469 14.1004C24.6714 14.1759 24.6569 14.2515 24.7106 14.3051C24.7659 14.3604 24.8834 14.3907 25.0375 14.3907C25.1885 14.3907 25.3702 14.3604 25.5324 14.3051C25.855 14.1982 26.0508 14.0048 25.9435 13.8946ZM22.9356 16.9025C22.8835 16.8472 22.7656 16.8169 22.6118 16.8169C22.4576 16.8169 22.276 16.8476 22.1137 16.9025C21.9526 16.9561 21.8162 17.0316 21.7403 17.1072C21.6631 17.1843 21.6503 17.2582 21.7039 17.3118C21.7592 17.3672 21.8767 17.3974 22.0305 17.3974C22.1814 17.3974 22.3631 17.3667 22.5254 17.3118C22.8512 17.2044 23.0446 17.0115 22.9356 16.9025ZM20.1906 17.1071L23.1972 14.1004C23.3574 13.9402 23.2275 13.8098 22.9066 13.8098C22.5856 13.8098 22.1957 13.9398 22.035 14.1004L19.0284 17.1071C18.8681 17.2673 18.9981 17.3977 19.319 17.3977C19.6399 17.3977 20.0299 17.2678 20.1906 17.1071ZM16.2825 17.3134C16.3362 17.3671 16.4541 17.3974 16.6079 17.3974C16.7617 17.3974 16.9434 17.3667 17.106 17.3118C17.4281 17.2045 17.6228 17.0099 17.5158 16.9021C17.4605 16.8468 17.343 16.8165 17.1892 16.8165C17.0382 16.8165 16.8566 16.8472 16.6939 16.9021C16.5296 16.9558 16.3948 17.03 16.3177 17.1068C16.2406 17.1842 16.2272 17.2581 16.2825 17.3134ZM17.6098 16.3954C17.9319 16.3954 18.3215 16.2647 18.4814 16.1048C18.6412 15.945 18.5132 15.8142 18.1907 15.8142C17.871 15.8142 17.479 15.945 17.3192 16.1048C17.1597 16.2647 17.2905 16.3954 17.6098 16.3954ZM19.3239 14.1009C19.2484 14.1764 19.2339 14.2519 19.2903 14.3056C19.3428 14.3609 19.4603 14.3911 19.6145 14.3911C19.7683 14.3911 19.9499 14.3608 20.1126 14.3056C20.4347 14.1983 20.6281 14.0048 20.5224 13.8958C20.4699 13.8405 20.3492 13.8103 20.1954 13.8103C20.044 13.8103 19.8628 13.8406 19.7001 13.8958C19.5358 13.9495 19.401 14.0238 19.3239 14.1009ZM18.6121 15.3935C18.9342 15.3935 19.3239 15.2627 19.4837 15.1029C19.6448 14.9418 19.5156 14.8122 19.1931 14.8122C18.8734 14.8122 18.483 14.9414 18.3215 15.1029C18.1621 15.2627 18.2924 15.3935 18.6121 15.3935ZM14.7683 17.1071L17.7749 14.1004C17.9352 13.9402 17.8053 13.8098 17.4843 13.8098C17.1634 13.8098 16.7735 13.9398 16.6128 14.1004L13.6061 17.1071C13.4459 17.2673 13.5758 17.3977 13.8967 17.3977C14.2177 17.3977 14.6077 17.2678 14.7683 17.1071ZM12.1896 16.3954C12.5089 16.3954 12.8997 16.2663 13.0612 16.1048C13.221 15.945 13.0903 15.8142 12.7706 15.8142C12.448 15.8142 12.0589 15.945 11.899 16.1048C11.7378 16.2662 11.8671 16.3954 12.1896 16.3954ZM13.1919 15.3935C13.5112 15.3935 13.9036 15.2627 14.0635 15.1029C14.2246 14.9418 14.0925 14.8122 13.7728 14.8122C13.4503 14.8122 13.0628 14.9414 12.9013 15.1029C12.7414 15.2627 12.8694 15.3935 13.1919 15.3935ZM10.8606 17.3118C10.9131 17.3671 11.0335 17.3973 11.1876 17.3973C11.3386 17.3973 11.5203 17.3666 11.6829 17.3118C12.005 17.2044 12.1996 17.0098 12.0922 16.902C12.0397 16.8467 11.9194 16.8165 11.7685 16.8165C11.6142 16.8165 11.4358 16.8472 11.2703 16.902C11.1092 16.9557 10.9696 17.0311 10.8941 17.1067C10.8171 17.1842 10.807 17.2581 10.8606 17.3118ZM13.9004 14.1009C13.8249 14.1764 13.8136 14.2519 13.8673 14.3056C13.9226 14.3609 14.0401 14.3911 14.1942 14.3911C14.3453 14.3911 14.5269 14.3608 14.6896 14.3056C15.0117 14.1983 15.2063 14.0036 15.0993 13.8958C15.0468 13.8405 14.9261 13.8103 14.7752 13.8103C14.621 13.8103 14.4397 13.8406 14.2771 13.8958C14.1156 13.9495 13.9775 14.0238 13.9004 14.1009ZM9.34604 17.1071L12.3527 14.1004C12.5129 13.9402 12.383 13.8098 12.0621 13.8098C11.7411 13.8098 11.3512 13.9398 11.1905 14.1004L8.18385 17.1071C8.02362 17.2673 8.15354 17.3977 8.47448 17.3977C8.79541 17.3977 9.1858 17.2678 9.34604 17.1071Z" fill="#D45446"/>
<path d="M24.7546 17.9661H23.6504V20.1322L24.7546 21.0191V17.9661Z" fill="#D04E41"/>
<path d="M22.0379 17.9661H20.957L22.0379 18.8343V17.9661Z" fill="#D04E41"/>
<path d="M30.7098 17.3205L25.9863 22.0439V17.966L30.7098 13.2424V17.3205Z" fill="#BF4739"/>
<path d="M20.6077 22.0437H19.6191V22.9379V24.5522V25.6554V26.0954H20.6077V22.0437ZM23.3253 22.0437H21.711V26.0954H23.3253V22.0437ZM25.9855 22.0171V22.0437H24.4285V26.0954H26.0428V22.0437H26.0287L26.0048 22.0247L25.9855 22.0441V22.0171H25.9855Z" fill="#BF3C30"/>
<path d="M26.0656 22.0437H26.0426V26.0954H26.0656V22.0437ZM21.7107 22.0437H20.6074V26.0954H21.7107V22.0437ZM24.4284 22.0437H23.3251V26.0954H24.4284V22.0437Z" fill="#BB382D"/>
<path d="M20.9336 17.9661H19.6191V19.1173V20.2206V21.835V22.044H20.6078H21.711H23.3254H24.4287H25.9856V22.0174V22.0094L24.754 21.0191V22.044H23.6508V20.1322L22.0364 18.8343V22.044H20.9336V17.9661Z" fill="#BF3C30"/>
<path d="M25.6787 13.2424H19.6182V13.6824V13.925L19.6986 13.8959C19.8612 13.8406 20.0425 13.8104 20.1939 13.8104C20.3477 13.8104 20.4684 13.8407 20.5208 13.8959C20.6266 14.0049 20.4336 14.1979 20.1111 14.3057C19.9504 14.3602 19.7707 14.3905 19.6182 14.3913V14.7852V16.3995V16.5162L22.0338 14.1006C22.194 13.9403 22.5844 13.8099 22.9054 13.8099C23.2263 13.8099 23.3563 13.9399 23.196 14.1006L20.1893 17.1072C20.0771 17.2194 19.8527 17.3167 19.6182 17.3652V17.5028V17.9659H20.9325H20.9555L21.6712 17.2502C21.666 17.207 21.6889 17.1577 21.7394 17.1073C21.7891 17.0576 21.8646 17.0084 21.9562 16.9648L22.6728 16.2482C22.6675 16.2063 22.6893 16.1574 22.7414 16.1049C22.793 16.0533 22.8689 16.0044 22.9586 15.9624L23.6755 15.2455C23.6703 15.2035 23.6917 15.1546 23.7433 15.103C23.7954 15.0509 23.8713 15.002 23.9609 14.9597L24.6775 14.2431C24.6726 14.1999 24.6956 14.1503 24.7453 14.1006C24.795 14.0509 24.8704 14.0017 24.9625 13.9581L25.6787 13.2424Z" fill="#CD4C40"/>
<path d="M21.9573 16.9647C21.8656 17.0079 21.7898 17.0575 21.7405 17.1072C21.69 17.1576 21.667 17.2069 21.6723 17.2501L21.9573 16.9647ZM22.9596 15.9623C22.87 16.0043 22.7941 16.0532 22.7424 16.1048C22.6903 16.1569 22.6685 16.2058 22.6738 16.2481L22.9596 15.9623ZM23.9624 14.9596C23.8728 15.0016 23.7969 15.0505 23.7448 15.1029C23.6932 15.1545 23.6714 15.2034 23.677 15.2454L23.9624 14.9596ZM24.9635 13.9585C24.8719 14.0017 24.796 14.0513 24.7463 14.101C24.6966 14.1507 24.6737 14.1999 24.6785 14.2435L24.9635 13.9585ZM20.1948 13.8103C20.0434 13.8103 19.8622 13.8406 19.6995 13.8958L19.6192 13.9249V14.3912C19.7718 14.3904 19.9515 14.3601 20.1121 14.3056C20.4342 14.1983 20.6276 14.0048 20.5219 13.8958C20.4693 13.8406 20.3486 13.8103 20.1948 13.8103ZM22.9063 13.8103C22.5854 13.8103 22.1955 13.9403 22.0348 14.1009L19.6191 16.5166V17.3651C19.8537 17.3166 20.0781 17.2194 20.1903 17.1071L23.1969 14.1005C23.3573 13.9403 23.2273 13.8103 22.9063 13.8103Z" fill="#BF3C30"/>
<path d="M20.9576 17.9661H20.9346V22.044H22.0384V18.8343L20.9576 17.9661Z" fill="#BB382D"/>
<path d="M23.6504 20.1321V22.0439H24.7546V21.019L23.6504 20.1321Z" fill="#BB382D"/>
<path d="M25.9863 22.009V22.0174V22.0452L26.0067 22.0254L25.9863 22.009Z" fill="#AC3327"/>
<path d="M19.6193 29.6249H8.7793V9.73315H19.6193V29.6249Z" fill="#D45446"/>
<path d="M15.5411 29.6249H6.09375V9.73315H15.5411V29.6249Z" fill="#E46A5D"/>
<path d="M7.81043 12.1266H13.8236C14.1446 12.1266 14.4045 11.8666 14.4045 11.5457C14.4045 11.2248 14.1445 10.9648 13.8236 10.9648H7.81043C7.48949 10.9648 7.22957 11.2248 7.22957 11.5457C7.22949 11.8666 7.48949 12.1266 7.81043 12.1266ZM9.23379 14.256C9.23379 14.5786 9.49254 14.8369 9.81465 14.8369C10.1343 14.8369 10.3955 14.5785 10.3955 14.256C10.3955 13.9367 10.1339 13.6752 9.81465 13.6752C9.49215 13.6752 9.23379 13.9367 9.23379 14.256ZM11.2381 14.256C11.2381 14.5786 11.4997 14.8369 11.819 14.8369C12.1415 14.8369 12.3998 14.5785 12.3998 14.256C12.3998 13.9367 12.1415 13.6752 11.819 13.6752C11.4993 13.6752 11.2381 13.9367 11.2381 14.256ZM7.39785 13.8467C7.29051 13.9541 7.22949 14.1023 7.22949 14.256C7.22949 14.4102 7.29043 14.5612 7.40066 14.6686C7.50801 14.7759 7.65942 14.837 7.81043 14.837C7.96145 14.837 8.11238 14.776 8.2202 14.6686C8.33043 14.5584 8.39137 14.4102 8.39137 14.256C8.39137 14.105 8.33043 13.9541 8.2202 13.8467C8.00496 13.632 7.61863 13.6291 7.39785 13.8467ZM13.4136 13.8467C13.3033 13.9541 13.242 14.1023 13.242 14.256C13.242 14.4102 13.3029 14.5612 13.4136 14.6686C13.5209 14.7759 13.6719 14.837 13.8229 14.837C13.9771 14.837 14.1248 14.776 14.2326 14.6686C14.3429 14.5584 14.4038 14.4102 14.4038 14.256C14.4038 14.105 14.3429 13.9541 14.2326 13.8467C14.0179 13.6291 13.6315 13.6291 13.4136 13.8467ZM13.8233 16.387H7.81043C7.48949 16.387 7.22957 16.647 7.22957 16.9679C7.22957 17.2888 7.48957 17.5487 7.81043 17.5487H13.8236C14.1446 17.5487 14.4045 17.2887 14.4045 16.9679C14.4046 16.647 14.1442 16.387 13.8233 16.387ZM14.2358 20.0888C14.3432 19.9815 14.4042 19.8333 14.4042 19.6791C14.4042 19.5252 14.3433 19.3743 14.233 19.2665C14.0183 19.0517 13.6287 19.0517 13.414 19.2665C13.3037 19.3767 13.2424 19.5252 13.2424 19.6791C13.2424 19.8305 13.3033 19.981 13.414 20.0888C13.5213 20.1991 13.6695 20.26 13.8233 20.26C13.9771 20.2604 14.1252 20.1995 14.2358 20.0888ZM12.3999 19.6791C12.3999 19.357 12.1383 19.0981 11.819 19.0981C11.4993 19.0981 11.2382 19.3569 11.2382 19.6791C11.2382 19.9987 11.4997 20.2599 11.819 20.2599C12.1383 20.2604 12.3999 19.9988 12.3999 19.6791ZM7.81043 20.2604C7.96145 20.2604 8.11238 20.1995 8.2202 20.0892C8.33043 19.9819 8.39137 19.8337 8.39137 19.6795C8.39137 19.5256 8.33043 19.3747 8.2202 19.2669C8.00504 19.0521 7.61871 19.0521 7.40113 19.2669C7.2909 19.3742 7.22996 19.5256 7.22996 19.6795C7.22996 19.8309 7.2909 19.9814 7.40113 20.0892C7.50848 20.1995 7.6566 20.2604 7.81043 20.2604ZM10.3956 19.6791C10.3956 19.357 10.134 19.0981 9.81473 19.0981C9.49215 19.0981 9.23387 19.3569 9.23387 19.6791C9.23387 19.9987 9.49262 20.2599 9.81473 20.2599C10.1344 20.2604 10.3956 19.9988 10.3956 19.6791ZM13.8233 21.8093H7.81043C7.48949 21.8093 7.22957 22.0693 7.22957 22.3902C7.22957 22.711 7.48957 22.971 7.81043 22.971H13.8236C14.1446 22.971 14.4045 22.711 14.4045 22.3902C14.4046 22.0693 14.1442 21.8093 13.8233 21.8093ZM12.3999 25.0997C12.3999 24.7804 12.1415 24.5188 11.819 24.5188C11.4993 24.5188 11.2382 24.7804 11.2382 25.0997C11.2382 25.4223 11.4997 25.6805 11.819 25.6805C12.1415 25.6806 12.3999 25.4219 12.3999 25.0997ZM10.3956 25.0997C10.3956 24.7804 10.134 24.5188 9.81473 24.5188C9.49215 24.5188 9.23387 24.7804 9.23387 25.0997C9.23387 25.4223 9.49262 25.6805 9.81473 25.6805C10.1344 25.6806 10.3956 25.4219 10.3956 25.0997ZM14.2326 25.5119C14.3429 25.4045 14.4038 25.2535 14.4038 25.0993C14.4038 24.9484 14.3429 24.7973 14.2326 24.6895C14.0179 24.4748 13.6283 24.4748 13.4136 24.6895C13.3033 24.7969 13.242 24.9483 13.242 25.0993C13.242 25.2535 13.3029 25.4012 13.4136 25.5119C13.5209 25.6192 13.6719 25.6834 13.8229 25.6834C13.9771 25.6834 14.1252 25.6197 14.2326 25.5119ZM7.81043 25.6834C7.96145 25.6834 8.11238 25.6192 8.2202 25.5119C8.33043 25.4016 8.39137 25.2535 8.39137 25.0993C8.39137 24.9484 8.33043 24.7973 8.2202 24.6895C8.00504 24.4748 7.6159 24.4748 7.40113 24.6895C7.2909 24.7969 7.22996 24.9483 7.22996 25.0993C7.22996 25.2535 7.2909 25.4041 7.40113 25.5119C7.50848 25.6197 7.6566 25.6834 7.81043 25.6834ZM13.8233 27.2312H7.81043C7.48949 27.2312 7.22957 27.4912 7.22957 27.812C7.22957 28.133 7.48957 28.393 7.81043 28.393H13.8236C14.1446 28.393 14.4045 28.133 14.4045 27.812C14.4046 27.4911 14.1442 27.2312 13.8233 27.2312Z" fill="#D45446"/>
<path d="M19.619 27.2698H15.541V28.373H19.619V27.2698ZM19.619 24.5522H15.541V25.6555H19.619V24.5522ZM19.619 21.8346H15.541V22.9379H19.619V21.8346ZM19.619 19.1169H15.541V20.2202H19.619V19.1169ZM19.619 16.3998H15.541V17.5031H19.619V17.3655V16.5169V16.3998ZM19.619 13.6823H15.541V14.7855H19.619V14.3912V13.9249V13.6823ZM19.619 10.9646H15.541V12.0679H19.619V10.9646Z" fill="#D04E41"/>
<path d="M22.7105 7.75607C22.5224 7.17115 22.2152 7.17115 22.0271 7.75607L18.09 20.0102C17.9019 20.5951 18.2511 21.0739 18.8655 21.0739H25.8726C26.487 21.0739 26.8358 20.5951 26.6481 20.0102L22.7105 7.75607Z" fill="#CEEAF2"/>
<path d="M22.7105 7.53269C22.5224 6.94776 22.2152 6.94776 22.0271 7.53269L18.09 19.7868C17.9019 20.3717 18.2511 20.8505 18.8655 20.8505H25.8726C26.487 20.8505 26.8358 20.3717 26.6481 19.7868L22.7105 7.53269Z" fill="white"/>
<path d="M26.6487 19.7866L22.7116 7.53282C22.6175 7.24056 22.4936 7.09399 22.3701 7.09399V20.8502H25.8736C26.4877 20.8502 26.8365 20.3715 26.6487 19.7866Z" fill="#CEEAF2"/>
<path d="M24.4276 27.6478C24.2423 27.6478 24.0925 27.4976 24.0925 27.3127V24.671C24.0925 24.2399 23.7813 23.8891 23.3986 23.8891C22.6461 23.8891 22.0342 23.2375 22.0342 22.437V20.0145C22.0342 19.8296 22.1843 19.6794 22.3693 19.6794C22.5546 19.6794 22.7043 19.8296 22.7043 20.0145V22.437C22.7043 22.8681 23.0156 23.219 23.3982 23.219C24.1508 23.219 24.7627 23.8705 24.7627 24.671V27.3127C24.7631 27.4976 24.6129 27.6478 24.4276 27.6478Z" fill="white"/>
<path d="M23.1406 26.1917V32.9989C23.1406 33.6952 23.7054 34.26 24.4017 34.26C25.098 34.26 25.6628 33.6952 25.6628 32.9989V26.1917H23.1406Z" fill="#F1B14F"/>
<path d="M24.4023 26.1917V34.26C25.0993 34.26 25.6646 33.6952 25.6646 32.9989V26.1917H24.4023Z" fill="#E99718"/>
<path d="M23.1406 26.8667V27.2623H25.6628V26.8667H23.1406ZM23.1406 28.1718H25.6628V27.7762H23.1406V28.1718ZM23.1406 29.0813H25.6628V28.6857H23.1406V29.0813ZM23.1406 29.9911H25.6628V29.5955H23.1406V29.9911ZM23.1406 30.9007H25.6628V30.5051H23.1406V30.9007ZM23.1406 31.8101H25.6628V31.4145H23.1406V31.8101ZM23.1406 32.7197H25.6628V32.324H23.1406V32.7197Z" fill="#CEEAF2"/>
</svg>
