<svg width="40" height="40" viewBox="0 0 40 40" fill="none" xmlns="http://www.w3.org/2000/svg">
<path d="M20 40C31.0455 40 40 31.0455 40 20C40 8.95445 31.0455 0 20 0C8.95445 0 0 8.95445 0 20C0 31.0455 8.95445 40 20 40Z" fill="#FFA300"/>
<path d="M28.6287 8.83295H27.5989L26.0928 7.56982H24.9515H24.4086V8.11279V8.83295L22.7244 7.56982H21.0403V8.83295L19.3561 7.56982H17.672V8.83295L15.9879 7.56982H14.8062H14.3036V8.83295L11.3701 8.84709V10.5312L12.6332 11.4306V12.2154H11.3701V13.8995L12.6332 14.7989V15.5837H11.3701V17.2678L12.6332 18.1672V18.9519H11.3701V20.6361L12.6332 21.5354V22.3206H11.3701V23.6822V24.0048L12.6332 24.9042V25.689H11.3701V27.3731L12.6332 28.2725V29.0572H11.3701V30.7414H11.4545L20.3629 39.9901C30.9244 39.8012 39.4874 31.4304 39.9754 20.9444L28.6287 8.83295Z" fill="#F58B20"/>
<path d="M26.0928 8.83295V7.56982H24.4086V8.83295H22.7245V7.56982H21.0403V8.83295H19.3562V7.56982H17.672V8.83295H15.9878V7.56982H14.3037V8.83295H12.6332V8.84709H11.3701V10.5312H12.6332V12.2154H11.3701V13.9H12.6332V15.5841H11.3701V17.2683H12.6332V18.9524H11.3701V20.6366H12.6332V22.3208H11.3701V24.0049H12.6332V25.689H11.3701V27.3737H12.6332V29.0578H11.3701V30.7419H12.6332V31.588H28.6292V8.83295H26.0928Z" fill="#CEEAF2"/>
<path d="M15.9883 7.56982V8.83295H17.6724H15.9883V7.56982ZM19.3566 7.56982V8.83295H21.0408H19.3566V7.56982Z" fill="#BF5044"/>
<path d="M22.7245 7.56982H21.0403V8.83295H19.3562V7.56982H17.6721V8.83295H15.9879V7.56982H14.8064L14.3038 8.0724V8.83295H13.5432L11.8449 10.5312H12.6332V12.2154H11.3701V13.8995H12.6332V15.5837H11.3701V17.2678H12.6332V18.9519H11.3701V20.6361H11.8852L19.0017 13.5196C19.2128 13.078 19.5709 12.7199 20.0125 12.5088L23.6888 8.83248H22.7248V7.56982H22.7245Z" fill="#BAE0EC"/>
<path d="M18.793 16.26L11.3701 23.6828V24.0054H12.4274L18.793 17.6398V16.26ZM27.5993 8.83301H26.2196L22.2768 12.7757C22.3717 12.8557 22.4589 12.9449 22.5408 13.0386C22.5675 13.062 22.7507 13.2424 22.9715 13.4608L27.5993 8.83301Z" fill="#BAE0EC"/>
<path d="M24.9524 7.56982H24.4082V8.11279L24.9524 7.56982Z" fill="#BAE0EC"/>
<path d="M18.7936 23.4032L11.4551 30.7418H12.6338V31.5879H20.7547L22.1809 30.1617C21.0203 29.0027 19.5687 27.5527 19.5307 27.5095C19.0822 27.1167 18.7932 26.5467 18.7932 25.9036V23.4032H18.7936ZM28.6298 13.5671L26.4753 15.7216H27.1176L28.6298 17.3314V13.5671Z" fill="#BAE0EC"/>
<path d="M23.4482 31.4258L23.2861 31.5877H24.6672H23.6102C23.6082 31.5856 23.5496 31.5271 23.4482 31.4258Z" fill="#BAE0EC"/>
<path d="M21.125 15.3076L18.793 17.6396V23.4038L24.227 17.9698V15.722H24.8171C24.5055 15.4633 24.105 15.3074 23.6691 15.3074H21.1339H21.125V15.3076ZM22.9714 13.4608L22.1233 14.3089H23.6694C23.7239 14.3089 23.778 14.3106 23.8316 14.3134C23.7683 14.2516 23.3227 13.808 22.9714 13.4608ZM20.9348 12.301C20.6042 12.301 20.2914 12.3757 20.012 12.5093L19.0012 13.5201C18.8677 13.7995 18.793 14.1127 18.793 14.4429V16.2595L22.2767 12.7757C22.2307 12.737 22.1827 12.7006 22.1326 12.6667C21.7907 12.4358 21.3785 12.301 20.9348 12.301Z" fill="#A6D7E6"/>
<path d="M28.6291 27.6234L24.665 31.5875H28.6291V27.6234ZM28.6291 23.7129L22.1807 30.1613C22.7261 30.7059 23.2072 31.1859 23.447 31.4256L28.629 26.2436V23.7129H28.6291Z" fill="#A6D7E6"/>
<path d="M20.0127 12.5095C19.5707 12.7206 19.2123 13.0787 19.001 13.5203L20.0127 12.5095Z" fill="#96CEE0"/>
<path d="M22.2767 12.7761L18.793 16.2599V17.6396L21.125 15.3076C20.8534 15.3028 20.6349 15.0811 20.6349 14.8082C20.6349 14.5321 20.8586 14.3089 21.1343 14.3089H22.1233L22.9714 13.4607C22.7506 13.2424 22.5673 13.0619 22.5407 13.0385C22.4588 12.9453 22.3716 12.856 22.2767 12.7761Z" fill="#96CEE0"/>
<path d="M27.1169 15.7217V16.6292V24.2624V25.1699H26.0734C25.5841 25.9882 24.6895 26.5371 23.6691 26.5371H20.9563C20.6806 26.5371 20.457 26.3139 20.457 26.0378C20.457 25.7616 20.6806 25.5384 20.9563 25.5384H23.6691C24.0788 25.5384 24.4566 25.4007 24.7594 25.1698H24.2265V25.1109V17.9693L18.793 23.4033V25.9033C18.793 26.5464 19.082 27.1164 19.5305 27.5092C19.568 27.5524 21.0197 29.0024 22.1806 30.1613L28.6291 23.7129V17.3315L27.1169 15.7217Z" fill="#96CEE0"/>
<path d="M28.6293 26.2441L23.4473 31.4258C23.5486 31.5271 23.6071 31.5856 23.6091 31.5877H24.6652L28.6293 27.6235V26.2441Z" fill="#96CEE0"/>
<path d="M25.7949 15.2886C25.9104 15.4227 26.0132 15.5683 26.102 15.7226H26.2356L26.1461 15.6426C26.0821 15.5718 26.0149 15.5051 25.9444 15.4409C25.8962 15.388 25.8467 15.3375 25.7949 15.2886Z" fill="#A6D7E6"/>
<path d="M23.0769 25.9037C23.0769 27.0869 22.1177 28.0456 20.9349 28.0456C19.7521 28.0456 18.793 27.0865 18.793 25.9037V14.4432C18.793 13.26 19.7521 12.3013 20.9349 12.3013C22.1177 12.3013 23.0769 13.2604 23.0769 14.4432V25.9037Z" fill="white"/>
<path d="M20.9346 12.301V28.0458C22.1178 28.0458 23.0765 27.0866 23.0765 25.9038V14.4434C23.0769 13.2602 22.1178 12.301 20.9346 12.301Z" fill="#CEEAF2"/>
<path d="M23.6701 26.5377H20.9574C20.6817 26.5377 20.458 26.3145 20.458 26.0383C20.458 25.7621 20.6817 25.5389 20.9574 25.5389H23.6701C24.6632 25.5389 25.4705 24.7312 25.4705 23.7381V17.108C25.4705 16.1153 24.6628 15.3076 23.6701 15.3076H21.135C20.8593 15.3076 20.6356 15.0844 20.6356 14.8082C20.6356 14.5321 20.8593 14.3088 21.135 14.3088H23.6701C25.2134 14.3088 26.4693 15.5643 26.4693 17.108V23.7381C26.4693 25.2818 25.2138 26.5377 23.6701 26.5377Z" fill="#6EBEC5"/>
<path d="M27.1175 25.1109H24.2275V15.7217H27.1175V25.1109Z" fill="#F1B14F"/>
<path d="M27.1185 16.6296H25.6719V24.2628H27.1185V16.6296Z" fill="#F0973E"/>
<path d="M27.1175 16.6296H24.2275V15.7217H27.1175V16.6296Z" fill="#E46A5D"/>
<path d="M27.1175 25.1704H24.2275V24.2629H27.1175V25.1704Z" fill="#E46A5D"/>
<path d="M27.1185 15.7217H26.101H25.6719V16.6296H27.1185V15.7217Z" fill="#E35A49"/>
<path d="M27.1185 24.2629H25.6719V25.1704H27.1185V24.2629Z" fill="#E35A49"/>
</svg>
