<svg width="31" height="30" viewBox="0 0 31 30" fill="none" xmlns="http://www.w3.org/2000/svg">
<circle cx="15.5357" cy="15" r="9.28571" fill="#48C95F"/>
<path d="M19.2157 11.3148C18.2985 10.4007 17.0755 9.89288 15.7846 9.89288C13.1008 9.89288 10.9265 12.0595 10.9265 14.734C10.9265 15.5804 11.1644 16.4267 11.572 17.1377L10.8926 19.6429L13.4745 18.9658C14.1879 19.3382 14.9692 19.5413 15.7846 19.5413C18.4684 19.5413 20.6426 17.3747 20.6426 14.7002C20.6086 13.4476 20.133 12.2288 19.2157 11.3148ZM18.1286 16.4606C18.0267 16.7314 17.5511 17.0023 17.3133 17.0361C17.1095 17.07 16.8377 17.07 16.5659 17.0023C16.3961 16.9345 16.1583 16.8668 15.8865 16.7314C14.6635 16.2236 13.8821 15.0049 13.8142 14.9033C13.7462 14.8356 13.3046 14.2601 13.3046 13.6507C13.3046 13.0413 13.6103 12.7705 13.7123 12.6351C13.8142 12.4997 13.9501 12.4997 14.052 12.4997C14.1199 12.4997 14.2218 12.4997 14.2898 12.4997C14.3577 12.4997 14.4597 12.4658 14.5616 12.7028C14.6635 12.9398 14.9013 13.5491 14.9353 13.583C14.9692 13.6507 14.9692 13.7184 14.9353 13.7861C14.9013 13.8538 14.8673 13.9215 14.7994 13.9892C14.7314 14.0569 14.6635 14.1585 14.6295 14.1924C14.5616 14.2601 14.4936 14.3278 14.5616 14.4293C14.6295 14.5648 14.8673 14.9372 15.241 15.2757C15.7166 15.6819 16.0903 15.8174 16.2262 15.8851C16.3621 15.9528 16.43 15.9189 16.498 15.8512C16.5659 15.7835 16.8037 15.5127 16.8717 15.3773C16.9396 15.2418 17.0415 15.2757 17.1434 15.3095C17.2454 15.3434 17.8569 15.6481 17.9588 15.7158C18.0947 15.7835 18.1626 15.8174 18.1966 15.8512C18.2306 15.9528 18.2306 16.1898 18.1286 16.4606Z" fill="white"/>
<circle cx="15.5352" cy="15" r="14.5" stroke="#DEDEDE" stroke-linecap="round" stroke-linejoin="round"/>
</svg>
